<?xml version="1.0" encoding="UTF-8"?>
<svg width="40px" height="40px" viewBox="0 0 40 40" version="1.1" xmlns="http://www.w3.org/2000/svg" xmlns:xlink="http://www.w3.org/1999/xlink">
    <title>01.概览备份 3</title>
    <g id="页面优化" stroke="none" stroke-width="1" fill="none" fill-rule="evenodd">
        <g id="01.概览2" transform="translate(-676.000000, -752.000000)">
            <g id="编组-35" transform="translate(676.000000, 752.000000)">
                <rect id="矩形备份-6" fill-opacity="0.1" fill="#FFB741" x="0" y="0" width="40" height="40" rx="4"></rect>
                <path d="M10.25,9 C10.25,10.5187831 11.3413059,11.75 12.6875,11.75 C14.0336941,11.75 15.125,10.5187831 15.125,9 L17.5625,9 L17.5625,9 C17.5625,10.5187831 18.6538059,11.75 20,11.75 C21.3461941,11.75 22.4375,10.5187831 22.4375,9 L24.875,9 L24.875,9 C24.875,10.5187831 25.9663059,11.75 27.3125,11.75 C28.6586941,11.75 29.75,10.5187831 29.75,9 L31.3333333,9 C32.2538079,9 33,9.74619208 33,10.6666667 L33,30.3333333 C33,31.2538079 32.2538079,32 31.3333333,32 L8.66666667,32 C7.74619208,32 7,31.2538079 7,30.3333333 L7,10.6666667 C7,9.74619208 7.74619208,9 8.66666667,9 L10.25,9 L10.25,9 Z" id="形状结合" fill="#FFB741"></path>
                <line x1="17" y1="21" x2="9" y2="21" id="路径备份-26" stroke="#FFFFFF" stroke-width="2" transform="translate(13.000000, 21.000000) scale(1, -1) translate(-13.000000, -21.000000) "></line>
                <line x1="17" y1="24" x2="9" y2="24" id="路径备份-27" stroke="#FFFFFF" stroke-width="2" transform="translate(13.000000, 24.000000) scale(1, -1) translate(-13.000000, -24.000000) "></line>
                <polyline id="路径备份-5" stroke="#FFFFFF" stroke-width="2" transform="translate(11.500000, 22.000000) scale(-1, 1) translate(-11.500000, -22.000000) " points="10 27 10 19.6666667 13 17"></polyline>
                <polyline id="路径备份-6" stroke="#FFFFFF" stroke-width="2" points="13 27 13 19.6666667 16 17"></polyline>
                <rect id="矩形备份-28" fill="#FFFFFF" opacity="0.6" x="20" y="19" width="10" height="2"></rect>
                <rect id="矩形备份-29" fill="#FFFFFF" opacity="0.6" x="20" y="23" width="8" height="2"></rect>
            </g>
        </g>
    </g>
</svg>