<?xml version="1.0" encoding="UTF-8"?>
<svg width="40px" height="40px" viewBox="0 0 40 40" version="1.1" xmlns="http://www.w3.org/2000/svg" xmlns:xlink="http://www.w3.org/1999/xlink">
    <title>6.订单管理/订单明细</title>
    <g id="运单管理" stroke="none" stroke-width="1" fill="none" fill-rule="evenodd">
        <g id="3.运单管理/详情抽屉" transform="translate(-808.000000, -84.000000)">
            <g id="Drawer/抽屉" transform="translate(776.000000, 0.000000)">
                <g id="编组-12" transform="translate(16.000000, 64.000000)">
                    <g id="编组-16" transform="translate(16.000000, 20.000000)">
                        <circle id="椭圆形" fill="#3D86EF" cx="20" cy="20" r="20"></circle>
                        <g id="货车-(1)" transform="translate(10.769231, 9.230769)" fill="#FFFEFC" fill-rule="nonzero">
                            <path d="M17.4362637,0 L1.02527471,0 C0.461538454,0 0,0.45229055 0,1.00443749 L0,10.6050062 L0.899340656,4.78266267 C0.899340656,4.78266267 2.32087911,3.0152704 5.20219779,3.0152704 L13.2415385,3.0152704 C16.1228571,3.0152704 17.5443956,4.78266267 17.5443956,4.78266267 L18.4615385,10.7179157 L18.4615385,1.00443749 C18.4615385,0.45229055 18,0 17.4362637,0 Z M9.14967031,3.56128073 C9.18219063,3.56128073 9.21389795,3.56128073 9.2480443,3.57369253 C9.28300364,3.56128093 9.31308494,3.56128093 9.34967031,3.56128073 L9.14967031,3.56128073 L9.14967031,3.56128073 Z M14.7534066,4.43088112 C13.683956,3.99360163 11.1224176,3.97467463 9.2320879,3.96096885 C7.33978021,3.97467463 4.77626372,3.99360163 3.70681317,4.43088112 C2.62351646,4.8740345 2.12901096,4.81268484 1.90417581,5.91958929 L0.861098885,12.054555 L0.861098885,19.0007721 L2.26153846,19.0007721 L2.26153846,20.326969 C2.26153846,21.9422924 4.58241757,21.9422924 4.58241757,20.326969 L4.58241757,19.0007721 L13.8791209,19.0007721 L13.8791209,20.326969 C13.8791209,21.9422924 16.2,21.9422924 16.2,20.326969 L16.2,19.0007721 L17.6004396,19.0007721 L17.6004396,12.0539024 L16.5573626,5.91958929 C16.3318681,4.81268482 15.8386813,4.87338183 14.7534066,4.43153377 L14.7534066,4.43088112 Z M2.33406593,11.8509264 L2.96703296,7.40177091 C3.05340659,6.86071914 3.24131867,6.50567432 3.95802197,6.50567432 L14.5015385,6.50567432 C15.2162637,6.50567432 15.4048352,6.86071914 15.4905494,7.40177091 L16.1235165,11.8509264 C16.1821978,12.2777634 16.0575824,12.7006844 15.4556044,12.7006844 L3.00263735,12.7006844 C2.40131868,12.7006844 2.2753846,12.2777634 2.33472527,11.8509264 L2.33406593,11.8509264 Z M4.89230768,16.1140749 C4.89195873,16.2370861 4.84221202,16.3549121 4.75403009,16.4415878 C4.66584817,16.5282636 4.54646826,16.5766756 4.42219779,16.5761627 L2.51736263,16.5761627 C2.3929172,16.5768494 2.27329973,16.528535 2.18487032,16.4418591 C2.09644091,16.3551832 2.04645718,16.2372595 2.04593406,16.1140749 L2.04593406,15.3224033 C2.04645655,15.199278 2.09646138,15.0814207 2.18491006,14.9948484 C2.27335874,14.908276 2.3929782,14.8601074 2.51736263,14.860964 L4.42153846,14.860964 C4.54569508,14.8604552 4.6649753,14.9087776 4.75313825,14.9953124 C4.84130119,15.0818471 4.89112485,15.1995054 4.89164835,15.3224033 L4.89164835,16.1140749 L4.89230768,16.1140749 Z M16.4142857,16.1140749 C16.4139367,16.2370861 16.36419,16.3549121 16.2760081,16.4415878 C16.1878262,16.5282636 16.0684463,16.5766756 15.9441758,16.5761627 L14.0386813,16.5761627 C13.9142359,16.5768494 13.7946184,16.528535 13.706189,16.4418591 C13.6177596,16.3551832 13.5677759,16.2372595 13.5672527,16.1140749 L13.5672527,15.3224033 C13.5677752,15.199278 13.6177801,15.0814207 13.7062287,14.9948484 C13.7946774,14.908276 13.9142969,14.8601074 14.0386813,14.860964 L15.9441758,14.860964 C16.0683324,14.8604552 16.1876127,14.9087776 16.2757756,14.9953124 C16.3639385,15.0818471 16.4137622,15.1995054 16.4142857,15.3224033 L16.4142857,16.1140749 L16.4142857,16.1140749 Z" id="形状"></path>
                        </g>
                    </g>
                </g>
            </g>
        </g>
    </g>
</svg>