<?xml version="1.0" encoding="UTF-8"?>
<svg width="16px" height="15px" viewBox="0 0 16 15" version="1.1" xmlns="http://www.w3.org/2000/svg" xmlns:xlink="http://www.w3.org/1999/xlink">
    <title>编组 9</title>
    <g id="智慧工厂" stroke="none" stroke-width="1" fill="none" fill-rule="evenodd">
        <g id="1.智慧工厂/设备管理" transform="translate(-758.000000, -212.000000)" fill-rule="nonzero">
            <g id="编组-9" transform="translate(666.000000, 208.000000)">
                <g id="指示灯" transform="translate(92.000000, 4.000000)">
                    <path d="M15.3392857,14 L0.660714287,14 C0.295811862,14 0,13.7919696 0,13.535351 L0,12.464649 C0,12.2080304 0.295811862,12 0.660714287,12 L15.3392857,12 C15.514518,12 15.6825733,12.048954 15.8064813,12.1360925 C15.9303892,12.2232311 16,12.3414164 16,12.464649 L16,13.535351 C16,13.7919696 15.7041881,14 15.3392857,14 L15.3392857,14 Z M14,11.0000001 L2,11.0000001 L2,6.73642466 C1.99875493,5.21466708 2.63309677,3.75489557 3.76321566,2.67885014 C4.89333454,1.6028047 6.42646251,0.998814582 8.02469147,1.00000008 C9.60979503,0.998902626 11.1303086,1.59796716 12.2511463,2.66517556 C13.3719841,3.73238396 14.0011528,5.18014461 14,6.6894048 L14,11.0000001 Z" id="形状" fill="#66BD7E"></path>
                    <path d="M8.85708363,6.22611193 L8.80182176,6.22611193 L8.81186935,6.20014903 L8.85708363,6.22611193 Z M7.19925334,7.20171735 L7.19297362,7.21778955 L7.16408677,7.20171735 L7.19925334,7.20171735 Z" id="形状" fill="#000000"></path>
                    <polygon id="路径" fill="#FFFFFF" points="10 5.88552437 7.6936431 10 8.45732279 7.1164451 6 7.11964549 8.30414433 3 7.54012425 5.88552437"></polygon>
                </g>
            </g>
        </g>
    </g>
</svg>