<?xml version="1.0" encoding="UTF-8"?>
<svg width="46px" height="46px" viewBox="0 0 46 46" version="1.1" xmlns="http://www.w3.org/2000/svg" xmlns:xlink="http://www.w3.org/1999/xlink">
    <title>Icon</title>
    <g id="概览" stroke="none" stroke-width="1" fill="none" fill-rule="evenodd">
        <g id="01.概览" transform="translate(-680.000000, -164.000000)">
            <g id="编组-22" transform="translate(648.000000, 88.000000)">
                <g id="编组-20">
                    <g id="Icon" transform="translate(32.000000, 76.000000)">
                        <circle id="Oval" fill="#E5FCFA" cx="23" cy="23" r="23"></circle>
                        <path d="M29,15 C30.1045695,15 31,15.8954305 31,17 L31,29 C31,30.1045695 30.1045695,31 29,31 L17,31 C15.8954305,31 15,30.1045695 15,29 L15,17 C15,15.8954305 15.8954305,15 17,15 L29,15 Z M22.9886328,17 C22.8072051,17 22.6318759,17.0762077 22.5053339,17.2099599 L22.5053339,17.2099599 L18.1876607,21.7933061 C17.9300029,22.0654763 17.9391505,22.4993933 18.2059559,22.7606767 C18.4727613,23.0235154 18.8981253,23.0141838 19.1542584,22.7420136 L19.1542584,22.7420136 L22.3254309,19.3764347 C22.3254309,19.3748794 22.3284801,19.3764347 22.3284801,19.3779899 L22.3284801,19.3779899 L22.3284801,28.3005068 C22.3284801,28.6970976 22.6516957,29.0221466 23.0419939,28.9988177 C23.3926524,28.9770441 23.6716545,28.6799898 23.6716545,28.3160594 L23.6716545,28.3160594 L23.6716545,19.4028741 C23.6716545,19.4013188 23.6731791,19.3997635 23.6747037,19.4013188 L23.6747037,19.4013188 L26.8458762,22.7668978 C27.1020093,23.039068 27.5273733,23.0468443 27.7941787,22.7855609 C27.9313929,22.6518086 28,22.4729539 28,22.292544 C28,22.1214656 27.9374913,21.9503872 27.8124739,21.8181902 L27.8124739,21.8181902 L23.4719317,17.2099599 C23.3453897,17.0762077 23.171585,17 22.9886328,17 Z" id="形状结合" fill="#46B8AF"></path>
                    </g>
                </g>
            </g>
        </g>
    </g>
</svg>