<?xml version="1.0" encoding="UTF-8"?>
<svg width="40px" height="40px" viewBox="0 0 40 40" version="1.1" xmlns="http://www.w3.org/2000/svg" xmlns:xlink="http://www.w3.org/1999/xlink">
    <title>01.概览备份 3</title>
    <g id="概览" stroke="none" stroke-width="1" fill="none" fill-rule="evenodd">
        <g id="01.概览备份-4" transform="translate(-276.000000, -680.000000)">
            <g id="编组-23" transform="translate(276.000000, 680.000000)">
                <rect id="矩形备份-15" fill="#F3F8FF" x="0" y="0" width="40" height="40" rx="4"></rect>
                <path d="M11.812,6 L11.8125143,8.47058824 L24.187551,8.47058824 L24.187,6 L27.3333986,6 C28.2538732,6 29.0000653,6.74619208 29.0000653,7.66666667 L29,17 L29,17 C24.0294373,17 20,21.0294373 20,26 C20,29.4835334 21.979125,32.5048174 24.8742989,34.0007758 L8.66666667,34 C7.74619208,34 7,33.2538079 7,32.3333333 L7,7.66666667 C7,6.74619208 7.74619208,6 8.66666667,6 L11.812,6 Z" id="形状结合" fill="#477AEF"></path>
                <rect id="矩形备份-23" fill="#F3F8FF" opacity="0.659291083" x="10" y="14" width="14" height="2"></rect>
                <rect id="矩形备份-24" fill="#477AEF" opacity="0.606422061" x="13" y="5" width="10" height="2"></rect>
                <rect id="矩形备份-30" fill="#F3F8FF" opacity="0.659291083" x="10" y="20" width="8" height="2"></rect>
                <rect id="矩形备份-32" fill="#F3F8FF" opacity="0.659291083" x="10" y="26" width="8" height="2"></rect>
                <circle id="椭圆形" fill="#477AEF" cx="29" cy="26" r="7"></circle>
                <g id="编组-5" transform="translate(25.000000, 22.000000)" stroke="#F3F8FF" stroke-width="1.8">
                    <polyline id="路径" transform="translate(4.500000, 3.818377) rotate(-315.000000) translate(-4.500000, -3.818377) " points="1.95896116 6.51837662 1.8 1.11837662 7.2 1.27733778"></polyline>
                    <line x1="4.28162338" y1="8.1" x2="4.28162338" y2="0.9" id="路径"></line>
                </g>
            </g>
        </g>
    </g>
</svg>