<?xml version="1.0" encoding="UTF-8"?>
<svg width="16px" height="16px" viewBox="0 0 16 16" version="1.1" xmlns="http://www.w3.org/2000/svg" xmlns:xlink="http://www.w3.org/1999/xlink">
    <title>01.概览备份 3</title>
    <g id="页面优化" stroke="none" stroke-width="1" fill="none" fill-rule="evenodd">
        <g id="01.概览2" transform="translate(-332.000000, -92.000000)">
            <g id="睁眼备份" transform="translate(332.000000, 92.000000)">
                <rect id="矩形" fill="#000000" fill-rule="nonzero" opacity="0" x="0" y="0" width="16" height="16"></rect>
                <path d="M10.7273345,3.77843979 C13.4996318,4.96419978 15.2,7.56 15.2,7.56 C15.2,7.56 13.088,12.8 8,12.8 C7.0278001,12.8 6.16425524,12.6086854 5.40333788,12.2991677 L6.42486599,10.6651541 C6.89148411,10.9211286 7.42972444,11.0613128 8,11.048 C9.72467623,11.0882616 11.1563485,9.72459376 11.2,8 C11.1721639,6.90024691 10.5798945,5.94726299 9.70714424,5.41151314 Z M8,3.2 C8.61816736,3.2 9.20620219,3.28829152 9.76016235,3.43974613 L8.76758705,5.02848227 C8.52121163,4.97257776 8.26403955,4.94583615 8,4.952 L7.82267531,4.95280031 C6.17823819,5.00621363 4.84214628,6.33487499 4.8,8 C4.82004457,8.79192553 5.13276778,9.50774606 5.63214338,10.0464716 L4.50197714,11.8541067 C1.92241374,10.3447765 0.8,7.56 0.8,7.56 C0.8,7.56 3.656,3.2 8,3.2 Z M8.91201011,6.68520176 C9.32780351,6.97415988 9.6,7.45529249 9.6,8 C9.6,8.8836556 8.8836556,9.6 8,9.6 C7.71591036,9.6 7.44911369,9.52595997 7.21785382,9.39612372 Z M7.907,6.404 L6.52340844,8.61726032 C6.44391393,8.42731909 6.4,8.21878787 6.4,8 C6.4,7.1163444 7.1163444,6.4 8,6.4 L7.907,6.404 Z" id="形状结合" fill="#848485" fill-rule="nonzero"></path>
                <rect id="矩形备份-18" fill="#848485" transform="translate(6.933013, 7.312178) rotate(-328.000000) translate(-6.933013, -7.312178) " x="6.4330127" y="-0.687822174" width="1" height="16"></rect>
            </g>
        </g>
    </g>
</svg>