<?xml version="1.0" encoding="UTF-8"?>
<svg width="16px" height="16px" viewBox="0 0 16 16" version="1.1" xmlns="http://www.w3.org/2000/svg" xmlns:xlink="http://www.w3.org/1999/xlink">
    <title>01.概览备份 3</title>
    <g id="概览" stroke="none" stroke-width="1" fill="none" fill-rule="evenodd">
        <g id="01.概览" transform="translate(-330.000000, -92.000000)" fill-rule="nonzero">
            <g id="闭眼" transform="translate(330.000000, 92.000000)">
                <rect id="矩形" fill="#000000" opacity="0" x="0" y="0" width="16" height="16"></rect>
                <path d="M15.1875,5.73125 L14.3625,5.73125 C14.0375,6.3515625 13.634375,6.9203125 13.1578125,7.4296875 C12.4875,8.146875 11.7078125,8.7109375 10.8390625,9.1046875 C9.940625,9.5109375 8.984375,9.71875 8,9.71875 C7.015625,9.71875 6.059375,9.5125 5.1609375,9.1046875 C4.2921875,8.7109375 3.5125,8.1484375 2.8421875,7.4296875 C2.365625,6.9203125 1.9640625,6.3515625 1.6375,5.73125 L0.8125,5.73125 C1.2515625,6.6765625 1.85,7.5234375 2.56875,8.23125 L1.2,9.9765625 L1.759375,10.478125 L3.1265625,8.7328125 C3.671875,9.1796875 4.271875,9.553125 4.915625,9.840625 L4.1875,11.9796875 L4.8734375,12.246875 L5.6,10.1078125 C6.246875,10.325 6.9296875,10.45625 7.634375,10.4890625 L7.634375,12.7671875 L8.3640625,12.7671875 L8.3640625,10.490625 C9.0703125,10.45625 9.7515625,10.325 10.3984375,10.109375 L11.125,12.2484375 L11.8109375,11.98125 L11.084375,9.8421875 C11.7265625,9.5546875 12.328125,9.18125 12.8734375,8.734375 L14.240625,10.4796875 L14.8,9.978125 L13.4328125,8.2328125 C14.15,7.5234375 14.7484375,6.6765625 15.1875,5.73125 Z" id="路径" fill="#848485"></path>
            </g>
        </g>
    </g>
</svg>