<?xml version="1.0" encoding="UTF-8"?>
<svg width="44px" height="44px" viewBox="0 0 44 44" version="1.1" xmlns="http://www.w3.org/2000/svg" xmlns:xlink="http://www.w3.org/1999/xlink">
    <title>编组 9</title>
    <g id="概览" stroke="none" stroke-width="1" fill="none" fill-rule="evenodd">
        <g id="01.概览" transform="translate(-782.000000, -872.000000)">
            <g id="编组-5" transform="translate(264.000000, 630.000000)">
                <g id="编组-8备份-2" transform="translate(486.000000, 222.000000)">
                    <g id="编组-9" transform="translate(32.000000, 20.000000)">
                        <circle id="Oval" fill="#FFF2EB" cx="22" cy="22" r="22"></circle>
                        <g id="Group" transform="translate(13.200000, 13.200000)" fill="#FF8742" fill-rule="nonzero">
                            <path d="M13.3609667,4.63686667 C13.3609667,2.0999 11.3047,0.0436333333 8.76736667,0.0436333333 C6.23003333,0.0436333333 4.17413333,2.0999 4.17413333,4.63686667 C4.17413333,8.27163333 8.76736667,13.6502667 8.76736667,13.6502667 C8.76736667,13.6502667 13.3609667,8.25293333 13.3609667,4.63686667 Z M6.5021,4.3626 C6.5021,3.11116667 7.51666667,2.09696667 8.76773333,2.09696667 C10.0188,2.09696667 11.0333667,3.11116667 11.0333667,4.3626 C11.0333667,5.61403333 10.0188,6.62823333 8.76773333,6.62823333 C7.51666667,6.62823333 6.5021,5.61403333 6.5021,4.3626 Z" id="Shape"></path>
                            <circle id="Oval" cx="8.76736667" cy="4.3626" r="1.11393333"></circle>
                            <path d="M11.3644667,12.0523333 C10.9901,12.5935333 10.6388333,13.0647 10.3462333,13.4431 C13.2487667,13.6176333 15.1510333,14.2442667 15.8587,14.7103 C15.0296667,15.257 12.5664,16.0255333 8.7681,16.0255333 C4.97016667,16.0255333 2.50653333,15.2566333 1.6775,14.7103 C2.38516667,14.2442667 4.28596667,13.618 7.18556667,13.4434667 C6.89223333,13.0650667 6.5406,12.5942667 6.16586667,12.0530667 C2.59416667,12.4047 0,13.4614333 0,14.7099333 C0,16.2462667 3.9259,17.4922 8.7681,17.4922 C13.6106667,17.4922 17.5358333,16.247 17.5358333,14.7099333 C17.5365667,13.4607 14.9394667,12.4036 11.3644667,12.0523333 Z" id="Shape"></path>
                        </g>
                    </g>
                </g>
            </g>
        </g>
    </g>
</svg>