<?xml version="1.0" encoding="UTF-8"?>
<svg width="40px" height="40px" viewBox="0 0 40 40" version="1.1" xmlns="http://www.w3.org/2000/svg" xmlns:xlink="http://www.w3.org/1999/xlink">
    <!-- Generator: Sketch 54.1 (76490) - https://sketchapp.com -->
    <title>物流实时监控icon</title>
    <desc>Created with Sketch.</desc>
    <defs>
        <filter x="-48.6%" y="-48.6%" width="197.2%" height="197.2%" filterUnits="objectBoundingBox" id="filter-1">
            <feGaussianBlur stdDeviation="5" in="SourceGraphic"></feGaussianBlur>
        </filter>
    </defs>
    <g id="物流实时监控icon" stroke="none" stroke-width="1" fill="none" fill-rule="evenodd">
        <g id="编组-3复制" transform="translate(1.000000, 1.000000)">
            <circle id="椭圆形复制" fill="#3D86EF" filter="url(#filter-1)" cx="19" cy="21.375" r="15.4375"></circle>
            <circle id="椭圆形" fill="#3D86EF" cx="19" cy="19" r="19"></circle>
            <g id="监控-(1)" transform="translate(8.312500, 9.500000)" fill="#FFFFFF" fill-rule="nonzero">
                <path d="M19.4833125,0 L1.8916875,0 C0.8443125,0 0,0.804394427 0,1.7920686 L0,12.3612004 C0,13.3488746 0.8443125,14.1634512 1.8916875,14.1634512 L9.9928125,14.1634512 L9.9928125,17.676313 L2.5543125,17.676313 C2.1695625,17.676313 1.859625,17.971597 1.859625,18.3381565 C1.859625,18.704716 2.1695625,19 2.5543125,19 L18.8206875,19 C19.2054375,19 19.515375,18.704716 19.515375,18.3381565 C19.515375,17.971597 19.2054375,17.676313 18.8206875,17.676313 L11.3821875,17.676313 L11.3821875,14.1634512 L19.4833125,14.1634512 C20.52,14.1634512 21.375,13.3590568 21.375,12.3612004 L21.375,1.7920686 C21.375,0.804394427 20.5306875,0 19.4833125,0 Z M19.985625,12.289925 C19.985625,12.6157556 19.70775,12.880493 19.36575,12.880493 L2.00925,12.880493 C1.66725,12.880493 1.389375,12.6157556 1.389375,12.289925 L1.389375,1.87352626 C1.389375,1.54769561 1.66725,1.2829582 2.00925,1.2829582 L19.36575,1.2829582 C19.70775,1.2829582 19.985625,1.54769561 19.985625,1.87352626 L19.985625,12.289925 L19.985625,12.289925 Z" id="形状"></path>
                <path d="M16.5198365,5.43705048 C16.4018657,5.31861929 16.2302718,5.25940369 16.0694025,5.27914222 C15.8978087,5.29888075 15.747664,5.38770415 15.6511425,5.51600461 L13.3131758,8.81233946 L11.9189756,3.97639911 C11.8546279,3.76914452 11.683034,3.61123626 11.4685416,3.5717592 C11.2540493,3.53228214 11.0288323,3.62110553 10.9001369,3.79875232 L7.84362091,7.93397478 L6.34217446,6.31541515 C6.13840673,6.0982913 5.80594359,6.0686835 5.55927738,6.24633029 L3.78971549,7.59841974 C3.53232467,7.79580506 3.4894262,8.15109863 3.68246932,8.39783028 C3.87551243,8.64456193 4.24014943,8.69390826 4.48681563,8.49652294 L5.83811744,7.47011928 L7.4682593,9.21697936 C7.58623009,9.34527982 7.74709936,9.41436468 7.92941785,9.40449542 C8.10101173,9.39462615 8.261881,9.30580276 8.35840255,9.16763303 L11.1253539,5.41731195 L12.5302788,10.2729908 C12.5946265,10.4802454 12.7662204,10.6381537 12.9914373,10.6776307 C13.0236112,10.6875 13.055785,10.6875 13.0879589,10.6875 C13.2702774,10.6875 13.4525959,10.5986766 13.559842,10.4407683 L16.198098,6.71018579 L18.0212829,8.44717661 C18.2464999,8.66430047 18.6218615,8.66430047 18.8363539,8.43730735 C19.0615708,8.21031423 19.0508462,7.85502065 18.8256292,7.62802753 L16.5198365,5.43705048 Z" id="路径"></path>
            </g>
        </g>
    </g>
</svg>