<?xml version="1.0" encoding="UTF-8"?>
<svg width="16px" height="16px" viewBox="0 0 16 16" version="1.1" xmlns="http://www.w3.org/2000/svg" xmlns:xlink="http://www.w3.org/1999/xlink">
    <title>编组 2</title>
    <g id="概览" stroke="none" stroke-width="1" fill="none" fill-rule="evenodd">
        <g id="01.概览备份-4" transform="translate(-802.000000, -964.000000)" fill-rule="nonzero">
            <g id="编组-6" transform="translate(216.000000, 832.000000)">
                <g id="编组-2" transform="translate(574.000000, 120.000000)">
                    <g id="定位" transform="translate(12.000000, 12.000000)">
                        <rect id="矩形" fill="#000000" opacity="0" x="0" y="0" width="16" height="16"></rect>
                        <path d="M7.99997602,0.992399156 C4.86423005,0.992399156 2.32230547,3.34521994 2.32230547,6.24793991 C2.32230547,10.6275625 7.05365761,15.0076009 7.99997602,15.0076009 C8.94634238,15.0076009 13.6776785,10.6275625 13.6776785,6.24793991 C13.6776785,3.34521994 11.135738,0.992399156 7.99997602,0.992399156 Z M7.99997602,9.40149778 C6.43211103,9.40149778 5.16095688,8.14655663 5.16095688,6.59847023 C5.16095688,5.05038384 6.43211103,3.79544269 7.99997602,3.79544269 C9.56787298,3.79544269 10.8386274,5.05038384 10.8386274,6.59847023 C10.8386274,8.14655663 9.567857,9.40149778 7.99997602,9.40149778 Z" id="形状" fill="#477AEF"></path>
                    </g>
                </g>
            </g>
        </g>
    </g>
</svg>