<?xml version="1.0" encoding="UTF-8"?>
<svg width="40px" height="40px" viewBox="0 0 40 40" version="1.1" xmlns="http://www.w3.org/2000/svg" xmlns:xlink="http://www.w3.org/1999/xlink">
    <title>01.概览备份 3</title>
    <g id="页面优化" stroke="none" stroke-width="1" fill="none" fill-rule="evenodd">
        <g id="01.概览2" transform="translate(-276.000000, -752.000000)">
            <g id="编组-34" transform="translate(276.000000, 752.000000)">
                <rect id="矩形备份-12" fill-opacity="0.1" fill="#66BD7E" x="0" y="0" width="40" height="40" rx="4"></rect>
                <circle id="椭圆形" fill="#66BD7E" cx="20" cy="20" r="13"></circle>
                <g id="编组-33" transform="translate(19.846154, 15.153846) rotate(-270.000000) translate(-19.846154, -15.153846) translate(15.846154, 10.153846)" stroke="#FFFFFF" stroke-width="2">
                    <polyline id="路径" transform="translate(3.846154, 3.263570) rotate(-315.000000) translate(-3.846154, -3.263570) " points="1.67432578 5.57126207 1.53846154 0.955877452 6.15384615 1.09174169"></polyline>
                    <line x1="3.65950716" y1="10" x2="3.65950716" y2="0.769230769" id="路径"></line>
                </g>
                <g id="编组-33备份" opacity="0.6" transform="translate(19.846154, 24.153846) scale(1, -1) rotate(-90.000000) translate(-19.846154, -24.153846) translate(15.846154, 19.153846)" stroke="#FFFFFF" stroke-width="2">
                    <polyline id="路径" transform="translate(3.846154, 3.263570) rotate(-315.000000) translate(-3.846154, -3.263570) " points="1.67432578 5.57126207 1.53846154 0.955877452 6.15384615 1.09174169"></polyline>
                    <line x1="3.65950716" y1="10" x2="3.65950716" y2="0.769230769" id="路径"></line>
                </g>
            </g>
        </g>
    </g>
</svg>