<?xml version="1.0" encoding="UTF-8"?>
<svg width="16px" height="16px" viewBox="0 0 16 16" version="1.1" xmlns="http://www.w3.org/2000/svg" xmlns:xlink="http://www.w3.org/1999/xlink">
    <title>01.概览备份 3</title>
    <g id="概览" stroke="none" stroke-width="1" fill="none" fill-rule="evenodd">
        <g id="01.概览" transform="translate(-310.000000, -92.000000)" fill-rule="nonzero">
            <g id="睁眼" transform="translate(310.000000, 92.000000)">
                <rect id="矩形" fill="#000000" opacity="0" x="0" y="0" width="16" height="16"></rect>
                <path d="M8,3.2 C3.656,3.2 0.8,7.56 0.8,7.56 C0.8,7.56 2.912,12.8 8,12.8 C13.088,12.8 15.2,7.56 15.2,7.56 C15.2,7.56 12.344,3.2 8,3.2 Z M8,11.048 C6.27532377,11.0882616 4.84365151,9.72459376 4.8,8 C4.84365151,6.27540624 6.27532377,4.91173841 8,4.952 C9.72467623,4.91173841 11.1563485,6.27540624 11.2,8 C11.1563485,9.72459376 9.72467623,11.0882616 8,11.048 L8,11.048 Z M8,6.4 C7.1163444,6.4 6.4,7.1163444 6.4,8 C6.4,8.8836556 7.1163444,9.6 8,9.6 C8.8836556,9.6 9.6,8.8836556 9.6,8 C9.6,7.1163444 8.8836556,6.4 8,6.4 L8,6.4 Z" id="形状" fill="#848485"></path>
            </g>
        </g>
    </g>
</svg>