<?xml version="1.0" encoding="UTF-8"?>
<svg width="20px" height="20px" viewBox="0 0 20 20" version="1.1" xmlns="http://www.w3.org/2000/svg" xmlns:xlink="http://www.w3.org/1999/xlink">
    <title>消息通知</title>
    <g id="运单管理" stroke="none" stroke-width="1" fill="none" fill-rule="evenodd">
        <g id="4.运单管理/自定义列表" transform="translate(-295.000000, -282.000000)" fill-rule="nonzero">
            <g id="消息通知" transform="translate(271.000000, 268.000000)">
                <g id="喇叭001_hover" transform="translate(24.000000, 14.000000)">
                    <rect id="矩形" fill="#000000" opacity="0" x="0" y="0" width="20" height="20"></rect>
                    <path d="M11.7490402,7.94509322 L11.7856517,8.45152986 L11.781331,7.94509322 L11.7490402,7.94509322 Z M10.823062,1.86423605 C10.588501,1.75363104 10.3104895,1.78417033 10.1065078,1.94170354 C10.0971341,1.94953822 9.10492686,2.71857682 8.0101691,3.50660254 C6.10476098,4.87673357 5.54957738,5.10501879 5.43739344,5.14117428 L3.317111,5.14117428 C2.75946908,5.14117428 2.27054057,5.36684127 1.93860563,5.77762277 C1.65289934,6.13028367 1.50182176,6.59285006 1.50182176,7.11495605 L1.50182176,9.99682215 L1.50182176,10.0031778 L1.50182176,12.8850439 C1.50182176,13.4071499 1.65289934,13.8697163 1.93860563,14.2223772 C2.27054057,14.6331387 2.75948906,14.8588257 3.317111,14.8588257 L5.43739344,14.8588257 C5.54955738,14.8949812 6.10474098,15.1232864 8.0101691,16.4933975 C9.10492686,17.2814232 10.0971341,18.0504618 10.1065078,18.0582965 C10.3104895,18.2158297 10.588501,18.246369 10.823062,18.135764 C11.0568435,18.0262782 11.2054427,17.794995 11.2054427,17.5406275 L11.2054427,10.0031779 L11.2054427,9.99682217 L11.2054427,2.45937254 C11.2054427,2.205005 11.0568235,1.97372182 10.823062,1.86423605 Z M18.4981782,9.99692209 C18.4981782,9.99688211 18.4981782,9.99684215 18.4981782,9.99682215 L18.4981183,9.99682215 C18.4969391,9.12571275 18.2498066,8.27740791 17.7840624,7.54398518 C17.3283314,6.82747098 16.6838284,6.24874336 15.9205459,5.87185889 C15.5873318,5.70723051 15.1797881,5.83720238 15.0107227,6.1627017 C14.8416573,6.48896049 14.9750869,6.88631109 15.3084808,7.05091949 C16.4402535,7.61022029 17.143017,8.73985439 17.1441563,10 C17.142997,11.2601456 16.4402535,12.3897797 15.3084808,12.9490805 C14.9750669,13.1136889 14.8416573,13.5110395 15.0107227,13.8372983 C15.1797681,14.1627977 15.5873318,14.2927695 15.9205459,14.1281412 C16.6838284,13.7512567 17.3283314,13.1725291 17.7840624,12.4560149 C18.2497866,11.7225921 18.4969391,10.8742873 18.4981183,10.0031779 L18.4981782,10.0031779 C18.4981782,10.0031379 18.4981782,10.0030979 18.4981782,10.0030779 C18.4981782,10.0020586 18.4981782,10.0010193 18.4981782,10 C18.4981383,9.99898068 18.4981782,9.99794139 18.4981782,9.99692209 Z M14.8743752,9.99682215 C14.8578064,9.51390957 14.7165022,9.06041703 14.4796028,8.66292652 C14.39532,8.45194957 14.179906,8.30185133 13.9273572,8.30185133 C13.6014182,8.30185133 13.3371174,8.55180186 13.3371174,8.86019277 C13.3371174,9.01842549 13.4068302,9.16116871 13.5186144,9.26275982 C13.6246625,9.49038549 13.6884592,9.73895695 13.7007509,9.99999998 C13.6884592,10.261043 13.6246625,10.5096145 13.5186144,10.7372401 C13.4068302,10.8388312 13.3371174,10.9815745 13.3371174,11.1398072 C13.3371174,11.4481781 13.6014182,11.6981486 13.9273572,11.6981486 C14.179906,11.6981486 14.39532,11.5480504 14.4796028,11.3370734 C14.7165022,10.9395829 14.8578064,10.4860904 14.8743752,10.0031778 L14.874675,10.0031778 C14.874635,10.0021185 14.8745551,10.0010593 14.8745151,9.99999996 C14.8745551,9.99894068 14.874635,9.99788141 14.874675,9.99682211 L14.8743752,9.99682215 Z" id="形状" fill="#FFB741"></path>
                </g>
            </g>
        </g>
    </g>
</svg>