<?xml version="1.0" encoding="UTF-8"?>
<svg width="310px" height="120px" viewBox="0 0 310 120" version="1.1" xmlns="http://www.w3.org/2000/svg" xmlns:xlink="http://www.w3.org/1999/xlink">
    <title>编组 39 + 路径 5 + 酷炫科技感山脉起伏3D立体背景纹理装饰PNG免扣素材 蒙版</title>
    <defs>
        <linearGradient x1="50%" y1="0%" x2="50%" y2="93.4570485%" id="linearGradient-1">
            <stop stop-color="#2380EA" stop-opacity="0.25857736" offset="0%"></stop>
            <stop stop-color="#3D86EF" stop-opacity="0" offset="100%"></stop>
        </linearGradient>
        <linearGradient x1="8.79669189%" y1="55.8513099%" x2="96.5573535%" y2="50%" id="linearGradient-2">
            <stop stop-color="#60AEFF" stop-opacity="0.114291958" offset="0%"></stop>
            <stop stop-color="#57A4FF" stop-opacity="0.774586278" offset="43.3269172%"></stop>
            <stop stop-color="#3783FF" stop-opacity="0" offset="100%"></stop>
        </linearGradient>
    </defs>
    <g id="智慧工厂" stroke="none" stroke-width="1" fill="none" fill-rule="evenodd">
        <g id="1.生产监控备份-3" transform="translate(-518.000000, -128.000000)">
            <g id="发货备份-4" transform="translate(256.000000, 128.000000)">
                <g id="编组-9" transform="translate(262.000000, -11.441662)">
                    <g id="编组备份-2" transform="translate(45.932830, 14.500000) scale(-1, 1) rotate(-12.000000) translate(-45.932830, -14.500000) translate(18.432830, 6.000000)" fill="#DDEBFF">
                        <path d="M23.0671379,14.1532582 C22.9092831,15.719858 21.5342587,16.8598007 19.9959191,16.699046 C18.4570831,16.5382914 17.337704,15.138007 17.4960551,13.5709016 C17.6539099,12.0043019 19.0289344,10.8643591 20.567274,11.0256193 C22.1056136,11.186374 23.2249927,12.5866584 23.0671379,14.1532582" id="Fill-1"></path>
                        <path d="M5.42154067,3.30451261 C5.28076075,4.67796015 4.05291504,5.67683109 2.67939273,5.53605884 C1.30627847,5.39487855 0.306945088,4.16750772 0.448133062,2.79406018 C0.588912979,1.42061264 1.81675869,0.421741704 3.18987294,0.562513956 C4.56339526,0.703286209 5.56272864,1.93106507 5.42154067,3.30451261" id="Fill-5"></path>
                        <path d="M54.6110438,10.078041 C54.4557256,11.5994418 53.1054451,12.7059151 51.5944597,12.5499783 C50.0834743,12.3935895 48.9845758,11.0340014 49.1394451,9.51260066 C49.2947632,7.99119992 50.6450437,6.88472665 52.1560292,7.04066345 C53.6665657,7.19705224 54.7659131,8.5566403 54.6110438,10.078041" id="Fill-7"></path>
                        <polygon id="Fill-9" points="19.8120634 13.254278 19.7476394 13.213934 2.72193327 2.47258351 2.85744581 2.25427796 19.8191722 12.9557328 36.9990516 3.25660079 37.0554782 3.27901409 51.7219333 9.08540392 51.6286296 9.32432971 37.0181567 3.54035318"></polygon>
                    </g>
                    <path d="M175.563432,24.7149488 C176.646954,24.0183818 177.771619,23.7925432 178.939969,24.1082404 C179.988803,24.3916435 181.08827,25.1288175 182.224909,26.4319849 C186.074451,30.8455246 190.505338,41.9935887 195.685969,63.3959716 C199.443261,78.9182102 204.025427,88.1142324 209.575104,90.8099735 C212.244857,92.1067995 215.124822,91.8281718 218.214215,90.0344252 C221.430717,88.1668782 224.861584,84.6840308 228.521406,79.603634 C233.482491,71.8944502 238.924013,67.6553246 244.801337,66.799519 C250.686826,65.9425245 257.051667,68.4704793 263.876931,74.4804409 C267.125235,77.3407236 270.499692,78.9405394 274.008713,79.2583648 C277.519546,79.5763542 281.156468,78.610661 284.923869,76.3844988 C292.888999,71.6778924 301.403721,61.3864043 310.5,45.5476169 L310.5,45.5476169 L310.5,150.969643 L21.2670345,150.969643 C22.7014264,147.162635 24.6911931,144.346041 27.2176831,142.504214 C29.6042401,140.764399 32.4733166,139.887784 35.8295932,139.887784 C42.2197486,139.887784 49.8991838,134.427114 58.9202381,123.678047 C59.7703547,122.693199 60.8319281,122.042627 62.1054228,121.727083 C63.3386786,121.42151 64.7771456,121.432799 66.421565,121.775702 C69.5849024,122.435337 73.5416649,124.333445 78.2847847,127.489811 C81.9822119,129.950308 84.8359865,130.63019 87.1837128,130.24461 C90.452346,129.707784 92.7052887,127.145219 94.8686703,124.741392 C96.989267,122.385105 99.0339861,120.181318 101.667975,119.731209 C104.620697,119.226633 107.844934,121.616024 111.333102,124.315992 C111.611766,124.531688 111.892218,124.748769 112.173447,124.964892 L112.173447,124.964892 L112.698197,125.366009 C115.438838,127.447875 118.345021,129.443416 121.444405,129.846462 C123.713264,130.141506 126.077529,129.556901 128.548793,127.520219 C137.066939,120.500024 153.619066,76.1319164 163.323745,50.2031349 C165.949292,43.1882454 168.073054,37.5144204 169.400966,34.2754828 C171.301704,29.6393546 173.353866,26.1354185 175.563432,24.7149488 Z" id="路径-5" stroke="url(#linearGradient-2)" fill="url(#linearGradient-1)"></path>
                    <circle id="椭圆形" fill="#5F9DF7" cx="212.5" cy="90.9416624" r="1.5"></circle>
                    <circle id="椭圆形备份-3" fill="#5F9DF7" cx="177.5" cy="23.9416624" r="1.5"></circle>
                    <circle id="椭圆形备份-4" fill="#5F9DF7" cx="101.5" cy="119.941662" r="1.5"></circle>
                </g>
            </g>
        </g>
    </g>
</svg>