<?xml version="1.0" encoding="UTF-8"?>
<svg width="40px" height="40px" viewBox="0 0 40 40" version="1.1" xmlns="http://www.w3.org/2000/svg" xmlns:xlink="http://www.w3.org/1999/xlink">
    <title>01.概览备份 3</title>
    <g id="概览" stroke="none" stroke-width="1" fill="none" fill-rule="evenodd">
        <g id="01.概览备份-4" transform="translate(-676.000000, -680.000000)">
            <g id="编组-24" transform="translate(676.000000, 680.000000)">
                <rect id="矩形备份-16" fill="#F3F8FF" x="0" y="0" width="40" height="40" rx="4"></rect>
                <g id="编组-32" opacity="0.6" transform="translate(23.000000, 22.000000)">
                    <rect id="矩形备份-27" fill="#477AEF" transform="translate(9.121320, 9.121320) rotate(-315.000000) translate(-9.121320, -9.121320) " x="7.12132034" y="8.12132034" width="4" height="2"></rect>
                    <circle id="椭圆形备份-2" stroke="#477AEF" stroke-width="2" cx="5" cy="5" r="4"></circle>
                </g>
                <path d="M11.812,6 L11.8125143,8.47058824 L24.187551,8.47058824 L24.187,6 L27.3333986,6 C28.2538732,6 29.0000653,6.74619208 29.0000653,7.66666667 L29.0010101,20.0710334 C28.6740854,20.0242218 28.3398714,20 28,20 C24.1340068,20 21,23.1340068 21,27 C21,30.713335 23.8913856,33.7513508 27.5455973,33.9854877 C27.4762869,33.9954374 27.4053756,34 27.3333986,34 L8.66666667,34 C7.74619208,34 7,33.2538079 7,32.3333333 L7,7.66666667 C7,6.74619208 7.74619208,6 8.66666667,6 L11.812,6 Z" id="形状结合备份" fill="#477AEF"></path>
                <rect id="矩形备份-21" fill="#F4FAF6" x="10" y="14" width="14" height="2"></rect>
                <rect id="矩形备份-22" fill="#477AEF" opacity="0.606422061" x="13" y="5" width="10" height="2"></rect>
                <rect id="矩形备份-25" fill="#F4FAF6" x="10" y="20" width="8" height="2"></rect>
                <rect id="矩形备份-26" fill="#F4FAF6" x="10" y="26" width="8" height="2"></rect>
            </g>
        </g>
    </g>
</svg>