<?xml version="1.0" encoding="UTF-8"?>
<svg width="40px" height="40px" viewBox="0 0 40 40" version="1.1" xmlns="http://www.w3.org/2000/svg" xmlns:xlink="http://www.w3.org/1999/xlink">
    <!-- Generator: Sketch 54.1 (76490) - https://sketchapp.com -->
    <title>运输管理icon</title>
    <desc>Created with Sketch.</desc>
    <defs>
        <filter x="-48.6%" y="-48.6%" width="197.2%" height="197.2%" filterUnits="objectBoundingBox" id="filter-1">
            <feGaussianBlur stdDeviation="5" in="SourceGraphic"></feGaussianBlur>
        </filter>
    </defs>
    <g id="运输管理icon" stroke="none" stroke-width="1" fill="none" fill-rule="evenodd">
        <g id="编组" transform="translate(1.000000, 1.000000)">
            <circle id="椭圆形复制" fill="#3D86EF" filter="url(#filter-1)" cx="19.4375" cy="19.4375" r="15.4375"></circle>
            <circle id="椭圆形" fill="#3D86EF" cx="19" cy="19" r="19"></circle>
            <g id="运输" transform="translate(8.000000, 10.000000)" fill="#FFFFFF" fill-rule="nonzero">
                <path d="M12.99375,5.86607143 L4.36171875,5.86607143 C4.01015625,5.86607143 3.72421875,6.17243304 3.72421875,6.54910714 C3.72421875,6.92578125 4.01015625,7.23214286 4.36171875,7.23214286 L12.99375,7.23214286 C13.3453125,7.23214286 13.63125,6.92578125 13.63125,6.54910714 C13.63125,6.16992187 13.3453125,5.86607143 12.99375,5.86607143 Z" id="路径"></path>
                <path d="M23.6507813,9.87388393 L21.1101563,6.19754464 C20.8054687,5.75558036 20.315625,5.49190848 19.8023438,5.49190848 L17.3554688,5.49190848 L17.3554688,1.74274554 C17.3554688,0.788504464 16.63125,0.0125558036 15.740625,0.0125558036 L1.61484375,0.0125558036 C0.72421875,0.0125558036 0,0.788504464 0,1.74274554 L0,12.6286272 C0,13.5828683 0.72421875,14.358817 1.61484375,14.358817 L1.70859375,14.358817 C1.68984375,14.5170201 1.68046875,14.6802455 1.68046875,14.843471 C1.68046875,16.9679129 3.29296875,18.6981027 5.278125,18.6981027 C7.2609375,18.6981027 8.87578125,16.9679129 8.87578125,14.8409598 C8.87578125,14.6777344 8.86640625,14.5145089 8.84765625,14.3563058 L15.5648437,14.3563058 C15.5460938,14.5145089 15.5367187,14.6777344 15.5367187,14.8409598 C15.5367187,16.9654018 17.1492187,18.6955915 19.134375,18.6955915 C21.1171875,18.6955915 22.7320312,16.9679129 22.7320312,14.8409598 C22.7320312,14.6902902 22.7226562,14.5396205 22.7085937,14.3939732 L23.3460938,14.3939732 C23.6976562,14.3939732 23.9835938,14.0876116 23.9835938,13.7109375 L23.9835938,10.9461496 C23.9789062,10.561942 23.8640625,10.1802455 23.6507813,9.87388393 L23.6507813,9.87388393 Z M5.278125,17.3270089 C3.9984375,17.3270089 2.9578125,16.2120536 2.9578125,14.8409598 C2.9578125,13.4698661 3.9984375,12.3549107 5.278125,12.3549107 C6.56015625,12.3549107 7.5984375,13.4698661 7.5984375,14.8409598 C7.5984375,16.2120536 6.55546875,17.3270089 5.278125,17.3270089 Z M5.278125,10.9863281 C3.91640625,10.9863281 2.73046875,11.8024554 2.11875,13.000279 C2.07890625,12.9927455 2.0390625,12.9877232 1.996875,12.9877232 L1.61484375,12.9877232 C1.43203125,12.9877232 1.275,12.8219866 1.275,12.6236049 L1.275,1.74274554 C1.275,1.546875 1.4296875,1.37862723 1.61484375,1.37862723 L15.740625,1.37862723 C15.9234375,1.37862723 16.0804687,1.54436384 16.0804687,1.74274554 L16.0804687,12.6286272 C16.0804687,12.8244978 15.9257812,12.9927455 15.740625,12.9927455 L8.428125,12.9927455 C7.81875,11.797433 6.63515625,10.9863281 5.278125,10.9863281 Z M19.1296875,17.3270089 C17.85,17.3270089 16.809375,16.2120536 16.809375,14.8409598 C16.809375,13.4698661 17.85,12.3549107 19.1296875,12.3549107 C20.4117188,12.3549107 21.45,13.4698661 21.45,14.8409598 C21.45,16.2120536 20.4117188,17.3270089 19.1296875,17.3270089 Z M22.7039062,13.0253906 L22.303125,13.0253906 C21.6960937,11.8125 20.503125,10.9888393 19.1320312,10.9888393 C18.4875,10.9888393 17.8804687,11.172154 17.3578125,11.4910714 L17.3578125,6.86049107 L19.8070312,6.86049107 C19.9171875,6.86049107 20.0226562,6.91824777 20.0882812,7.01367187 L22.6265625,10.6900112 C22.678125,10.765346 22.70625,10.8557478 22.70625,10.9486607 L22.7039062,13.0253906 L22.7039062,13.0253906 Z" id="形状"></path>
            </g>
        </g>
    </g>
</svg>