<?xml version="1.0" encoding="UTF-8"?>
<svg width="26px" height="26px" viewBox="0 0 26 26" version="1.1" xmlns="http://www.w3.org/2000/svg" xmlns:xlink="http://www.w3.org/1999/xlink">
    <!-- Generator: Sketch 57.1 (83088) - https://sketch.com -->
    <title>头像</title>
    <desc>Created with Sketch.</desc>
    <defs>
        <polygon id="path-1" points="-0.02418 0.035641791 25.97582 0.035641791 25.97582 26.0356418 -0.02418 26.0356418"></polygon>
    </defs>
    <g id="头像" stroke="none" stroke-width="1" fill="none" fill-rule="evenodd">
        <mask id="mask-2" fill="white">
            <use xlink:href="#path-1"></use>
        </mask>
        <g id="Clip-2"></g>
        <path d="M13,26 C5.82022866,26 0,20.1797713 0,13 C0,5.82400625 5.82022866,0 13,0 C20.1797713,0 26,5.82022866 26,13 C26,20.1797713 20.1759937,26 13,26" id="Fill-1" fill="#EBEEF3" mask="url(#mask-2)"></path>
        <path d="M18.682576,15.9228418 L7.293256,15.9228418 C6.723976,15.9228418 6.261616,15.4627821 6.261616,14.8963343 L6.261616,6.51961791 C6.261616,5.95317015 6.723976,5.49311045 7.293256,5.49311045 L18.682576,5.49311045 C19.251856,5.49311045 19.714216,5.95317015 19.714216,6.51961791 L19.714216,14.8963343 C19.714216,15.4627821 19.251856,15.9228418 18.682576,15.9228418" id="Fill-3" fill="#3D86EF" mask="url(#mask-2)"></path>
        <path d="M19.72036,10.6716418 L20.07916,10.6716418 C20.41036,10.6716418 20.67952,10.9394627 20.67952,11.2690149 L20.67952,12.4533731 C20.67952,12.7830448 20.41036,13.0507463 20.07916,13.0507463 L19.72036,13.0507463 C19.38904,13.0507463 19.12,12.7830448 19.12,12.4533731 L19.12,11.2655522 C19.12336,10.936 19.38904,10.6716418 19.72036,10.6716418" id="Fill-5" fill="#C1DAFF" mask="url(#mask-2)"></path>
        <path d="M6.04036,10.6716418 L6.39916,10.6716418 C6.73036,10.6716418 6.99952,10.9394627 6.99952,11.2690149 L6.99952,12.4533731 C6.99952,12.7830448 6.73036,13.0507463 6.39916,13.0507463 L6.04036,13.0507463 C5.70904,13.0507463 5.44,12.7830448 5.44,12.4533731 L5.44,11.2655522 C5.44336,10.936 5.70904,10.6716418 6.04036,10.6716418" id="Fill-5-Copy" fill="#C1DAFF" mask="url(#mask-2)"></path>
        <path d="M19.64632,13.0597015 L20.12596,13.0597015 L20.12596,13.3720597 C20.12596,13.7566567 19.81204,14.0690149 19.42552,14.0690149 L18.28,14.0690149 L18.28,13.5918806 L19.42552,13.5918806 C19.54636,13.5918806 19.64632,13.4922985 19.64632,13.3720597 L19.64632,13.0597015 Z" id="Fill-7" fill="#E4EFFF" mask="url(#mask-2)"></path>
        <path d="M7.16632,13.0597015 L7.64596,13.0597015 L7.64596,13.3720597 C7.64596,13.7566567 7.33204,14.0690149 6.94552,14.0690149 L5.8,14.0690149 L5.8,13.5918806 L6.94552,13.5918806 C7.06636,13.5918806 7.16632,13.4922985 7.16632,13.3720597 L7.16632,13.0597015 Z" id="Fill-7-Copy" fill="#E4EFFF" mask="url(#mask-2)" transform="translate(6.722980, 13.564358) scale(-1, 1) translate(-6.722980, -13.564358) "></path>
        <path d="M17.064448,20.5712836 C16.512328,20.5712836 16.063768,20.1249552 16.063768,19.5755821 L16.063768,18.6143881 C16.063768,18.0684776 16.512328,17.6186866 17.064448,17.6186866 C17.612968,17.6186866 18.065008,18.0651343 18.065008,18.6143881 L18.065008,19.5755821 C18.065008,20.1249552 17.616448,20.5712836 17.064448,20.5712836" id="路径" fill="#07234B" mask="url(#mask-2)"></path>
        <path d="M8.714728,20.5712836 C8.162728,20.5712836 7.714168,20.1249552 7.714168,19.5755821 L7.714168,18.6143881 C7.714168,18.0684776 8.162728,17.6186866 8.714728,17.6186866 C9.263368,17.6186866 9.715288,18.0651343 9.715288,18.6143881 L9.715288,19.5755821 C9.715288,20.1249552 9.266848,20.5712836 8.714728,20.5712836" id="路径" fill="#07234B" mask="url(#mask-2)"></path>
        <path d="M18.965464,14.0346746 L18.965464,19.0537791 L7.010344,19.0537791 L7.010344,14.0346746 L7.438144,10.5774806 C7.555504,9.62309254 8.369824,8.90906269 9.335824,8.90906269 L16.639984,8.90906269 C17.606104,8.90906269 18.420304,9.62655522 18.537664,10.5774806 L18.965464,14.0346746 Z" id="Fill-11" fill="#6BA8FF" mask="url(#mask-2)"></path>
        <path d="M18.268552,13.5951881 L17.902792,10.6564418 C17.823472,10.0213373 17.281672,9.54420299 16.636552,9.54420299 L9.335872,9.54420299 C8.694112,9.54420299 8.148952,10.0213373 8.069632,10.6564418 L7.703872,13.5951881 L18.268552,13.5951881 Z" id="Fill-13" fill="#C1DAFF" mask="url(#mask-2)"></path>
        <path d="M18.96898,17.8454209 L7.0069,17.8454209 C6.67222,17.8454209 6.3997,18.1165851 6.3997,18.4496 C6.3997,18.7826149 6.67222,19.0537791 7.0069,19.0537791 L18.96898,19.0537791 C19.30366,19.0537791 19.5763,18.7826149 19.5763,18.4496 C19.5763,18.1165851 19.30366,17.8454209 18.96898,17.8454209" id="Fill-15" fill="#FF7058" mask="url(#mask-2)"></path>
        <path d="M18.96898,17.8454209 L7.0069,17.8454209 C6.67222,17.8454209 6.3997,18.1165851 6.3997,18.4496 C6.3997,18.7826149 6.67222,19.0537791 7.0069,19.0537791 L18.96898,19.0537791 C19.30366,19.0537791 19.5763,18.7826149 19.5763,18.4496 C19.5763,18.1165851 19.30366,17.8454209 18.96898,17.8454209" id="Fill-17" fill="#C1DAFF" mask="url(#mask-2)"></path>
        <path d="M9.549736,16.2696239 C9.549736,16.7434149 9.163336,17.1277731 8.687176,17.1277731 C8.211016,17.1277731 7.824616,16.7434149 7.824616,16.2696239 C7.824616,15.7958328 8.211016,15.4113552 8.687176,15.4113552 C9.163336,15.4113552 9.549736,15.7958328 9.549736,16.2696239" id="Fill-19" fill="#3D86EF" mask="url(#mask-2)"></path>
        <path d="M18.15124,16.2696239 C18.15124,16.7434149 17.76472,17.1277731 17.28868,17.1277731 C16.81252,17.1277731 16.42612,16.7434149 16.42612,16.2696239 C16.42612,15.7958328 16.81252,15.4113552 17.28868,15.4113552 C17.76472,15.4113552 18.15124,15.7958328 18.15124,16.2696239" id="Fill-21" fill="#3D86EF" mask="url(#mask-2)"></path>
        <polygon id="路径" fill="#EBF3FF" mask="url(#mask-2)" points="14.338672 9.54416716 11.105872 13.5951522 10.139752 13.5951522 13.379512 9.54416716"></polygon>
        <polygon id="路径" fill="#EBF3FF" mask="url(#mask-2)" points="12.975832 9.54416716 9.736072 13.5951522 9.135712 13.5951522 12.375472 9.54416716"></polygon>
        <path d="M15.649756,16.9022448 C15.573916,16.9022448 15.511876,16.8239142 15.511876,16.7283449 L15.511876,16.0761447 C15.511876,15.9804241 15.573916,15.9022448 15.649756,15.9022448 C15.725716,15.9022448 15.787756,15.9804241 15.787756,16.0761447 L15.787756,16.7283449 C15.787756,16.8239142 15.725716,16.9022448 15.649756,16.9022448" id="路径" fill="#E8F1FF" mask="url(#mask-2)"></path>
        <path d="M14.890756,16.9022448 C14.814796,16.9022448 14.752636,16.8239142 14.752636,16.7283449 L14.752636,16.0761447 C14.752636,15.9804241 14.814796,15.9022448 14.890756,15.9022448 C14.966716,15.9022448 15.028756,15.9804241 15.028756,16.0761447 L15.028756,16.7283449 C15.028756,16.8239142 14.966716,16.9022448 14.890756,16.9022448" id="路径" fill="#E8F1FF" mask="url(#mask-2)"></path>
        <path d="M14.131756,16.9022448 C14.055796,16.9022448 13.993636,16.8239142 13.993636,16.7283449 L13.993636,16.0761447 C13.993636,15.9804241 14.055796,15.9022448 14.131756,15.9022448 C14.207476,15.9022448 14.269636,15.9804241 14.269636,16.0761447 L14.269636,16.7283449 C14.269636,16.8239142 14.207476,16.9022448 14.131756,16.9022448" id="路径" fill="#E8F1FF" mask="url(#mask-2)"></path>
        <path d="M13.372516,16.9022448 C13.296796,16.9022448 13.234636,16.8239142 13.234636,16.7283449 L13.234636,16.0761447 C13.234636,15.9804241 13.296796,15.9022448 13.372516,15.9022448 C13.448476,15.9022448 13.510636,15.9804241 13.510636,16.0761447 L13.510636,16.7283449 C13.510636,16.8239142 13.448476,16.9022448 13.372516,16.9022448" id="路径" fill="#E8F1FF" mask="url(#mask-2)"></path>
        <path d="M12.613516,16.9022448 C12.537676,16.9022448 12.475516,16.8239142 12.475516,16.7283449 L12.475516,16.0761447 C12.475516,15.9804241 12.537676,15.9022448 12.613516,15.9022448 C12.689476,15.9022448 12.751636,15.9804241 12.751636,16.0761447 L12.751636,16.7283449 C12.751636,16.8239142 12.689476,16.9022448 12.613516,16.9022448" id="路径" fill="#E8F1FF" mask="url(#mask-2)"></path>
        <path d="M11.854516,16.9022448 C11.778556,16.9022448 11.716516,16.8239142 11.716516,16.7283449 L11.716516,16.0761447 C11.716516,15.9804241 11.778556,15.9022448 11.854516,15.9022448 C11.930356,15.9022448 11.992516,15.9804241 11.992516,16.0761447 L11.992516,16.7283449 C11.992516,16.8239142 11.930356,16.9022448 11.854516,16.9022448" id="路径" fill="#E8F1FF" mask="url(#mask-2)"></path>
        <path d="M10.336396,16.9022448 C10.260436,16.9022448 10.198396,16.8239142 10.198396,16.7283449 L10.198396,16.0761447 C10.198396,15.9804241 10.260436,15.9022448 10.336396,15.9022448 C10.412236,15.9022448 10.474396,15.9804241 10.474396,16.0761447 L10.474396,16.7283449 C10.474396,16.8239142 10.412236,16.9022448 10.336396,16.9022448" id="路径" fill="#E8F1FF" mask="url(#mask-2)"></path>
        <path d="M11.095396,16.9022448 C11.019556,16.9022448 10.957396,16.8239142 10.957396,16.7283449 L10.957396,16.0761447 C10.957396,15.9804241 11.019556,15.9022448 11.095396,15.9022448 C11.171356,15.9022448 11.233516,15.9804241 11.233516,16.0761447 L11.233516,16.7283449 C11.233516,16.8239142 11.171356,16.9022448 11.095396,16.9022448" id="路径" fill="#E8F1FF" mask="url(#mask-2)"></path>
    </g>
</svg>