<?xml version="1.0" encoding="UTF-8"?>
<svg width="36px" height="36px" viewBox="0 0 36 36" version="1.1" xmlns="http://www.w3.org/2000/svg" xmlns:xlink="http://www.w3.org/1999/xlink">
    <title>编组 15</title>
    <g id="概览" stroke="none" stroke-width="1" fill="none" fill-rule="evenodd">
        <g id="01.概览" transform="translate(-296.000000, -174.000000)">
            <g id="编组-7" transform="translate(264.000000, 88.000000)">
                <g id="编组-15" transform="translate(32.000000, 86.000000)">
                    <circle id="Oval" fill="#FFF2EA" cx="18" cy="18" r="18"></circle>
                    <path d="M22.2608696,11.7391304 C23.3654391,11.7391304 24.2608696,12.6345609 24.2608696,13.7391304 L24.2608696,22.2608696 C24.2608696,23.3654391 23.3654391,24.2608696 22.2608696,24.2608696 L13.7391304,24.2608696 C12.6345609,24.2608696 11.7391304,23.3654391 11.7391304,22.2608696 L11.7391304,13.7391304 C11.7391304,12.6345609 12.6345609,11.7391304 13.7391304,11.7391304 L22.2608696,11.7391304 Z M15.5597645,13.4825341 C15.3021145,13.7178786 15.3002871,14.1001047 15.5579372,14.3354491 L17.7178119,16.3066674 C17.730603,16.3183512 17.7433941,16.3350423 17.7561853,16.3350423 L14.7137222,16.3350423 C14.3701888,16.3350423 14.0869565,16.5970925 14.0869565,16.910885 L14.0869565,16.9659657 C14.0869565,17.2797582 14.3701888,17.5301247 14.7137222,17.5301247 L17.5350814,17.5301247 L17.5350814,18.5983547 L15.2966325,18.5983547 C14.9530992,18.5983547 14.6844853,18.8704196 14.6844853,19.1842122 L14.6844853,19.2509765 C14.6844853,19.5647691 14.9530992,19.8001136 15.2966325,19.8001136 L17.5350814,19.8001136 L17.5350814,22.2904249 C17.5350814,22.6225777 17.8292775,22.8913043 18.1929112,22.8913043 C18.5565449,22.8913043 18.8507411,22.6225777 18.8507411,22.2904249 L18.8507411,19.8001136 L21.0763988,19.8001136 C21.4199321,19.8001136 21.7196102,19.5647691 21.7196102,19.2509765 L21.7196102,19.1842122 C21.7196102,18.8704196 21.4199321,18.5983547 21.0763988,18.5983547 L18.8507411,18.5983547 L18.8507411,17.5301247 L21.6611364,17.5301247 C22.0046698,17.5301247 22.3043478,17.2931111 22.3043478,16.9776494 L22.3043478,16.910885 C22.3043478,16.5970925 22.0046698,16.3116747 21.6611364,16.3116747 L18.6095368,16.3116747 C18.6223279,16.3116747 18.6351191,16.3066674 18.6479102,16.2949836 L20.8077849,14.3287727 C21.0654349,14.0934282 21.0672622,13.7162095 20.8096122,13.4825341 C20.5519622,13.2471897 20.1371639,13.2488588 19.8795139,13.4842033 L18.1910839,15.0281295 L16.4935174,13.4791959 C16.2358674,13.2438515 15.8174145,13.2471897 15.5597645,13.4825341 Z" id="形状结合" fill="#FFB741"></path>
                </g>
            </g>
        </g>
    </g>
</svg>