<?xml version="1.0" encoding="UTF-8"?>
<svg width="16px" height="16px" viewBox="0 0 16 16" version="1.1" xmlns="http://www.w3.org/2000/svg" xmlns:xlink="http://www.w3.org/1999/xlink">
    <title>4.数据统计/库存统计备份 3</title>
    <g id="库存管理" stroke="none" stroke-width="1" fill="none" fill-rule="evenodd">
        <g id="4.数据统计/库存统计备份-3" transform="translate(-1205.000000, -157.000000)">
            <g id="编组-2备份-4" transform="translate(1141.000000, 129.000000)">
                <g id="配煤" transform="translate(64.000210, 28.934801)">
                    <path d="M1.94954708,3.13456307 C1.94954708,3.40657939 2.15159449,3.62249235 2.40752121,3.62249235 L9.01110419,3.62249235 C9.26534718,3.62249235 9.46907833,3.40657939 9.46907833,3.13456307 C9.46907833,2.86254675 9.26703091,2.6466338 9.01110419,2.6466338 L2.39910257,2.6466338 C2.15159449,2.6466338 1.94954708,2.86254675 1.94954708,3.13456307 L1.94954708,3.13456307 Z M2.23746464,6.51266576 L6.40300882,6.51266576 C6.56296303,6.51266576 6.69092639,6.29675281 6.69092639,6.02473648 C6.69092639,5.75272016 6.56296303,5.53680721 6.40300882,5.53680721 L2.23746464,5.53680721 C2.07751044,5.53680721 1.94954708,5.75272016 1.94954708,6.02473648 C1.95459826,6.29675281 2.0808779,6.51266576 2.23746464,6.51266576 Z M2.17685042,9.26513091 L4.68560581,9.26513091 C4.81020171,9.26513091 4.91290915,9.06621897 4.91290915,8.82650459 C4.91290915,8.58679021 4.81020171,8.38787827 4.68560581,8.38787827 L2.17685042,8.38787827 C2.05225451,8.38787827 1.94954708,8.58679021 1.94954708,8.82650459 C1.94954708,9.06621897 2.05225451,9.26513091 2.17685042,9.26513091 Z" id="形状" fill="#4A4A5A" fill-rule="nonzero"></path>
                    <path d="M4.78662951,15.0352771 L0.40556809,15.0352771 C0.179948478,15.0352771 0.00315699084,14.8652669 0.00315699084,14.6476539 L0.00315699084,0.392298538 C0.00315699084,0.176385583 0.179948478,0.00637538252 0.40556809,0.00637538252 L11.9256381,0.00637538252 C12.1512577,0.00637538252 12.3280492,0.176385583 12.3280492,0.392298538 L12.3280492,4.57624957 C12.3280492,4.79216253 12.1512577,4.96217273 11.9256381,4.96217273 C11.7000185,4.96217273 11.523227,4.79216253 11.523227,4.57624957 L11.523227,0.778221693 L0.807979189,0.778221693 L0.807979189,14.2600306 L4.78662951,14.2600306 C5.01224912,14.2600306 5.18904061,14.4300408 5.18904061,14.6459538 C5.18904061,14.8652669 5.01224912,15.0352771 4.78662951,15.0352771 Z" id="路径" fill="#4A4A5A" fill-rule="nonzero"></path>
                    <path d="M14.9125724,8.34877593 L14.9125724,8.34197552 C14.9058375,8.27737164 14.8822653,8.21446787 14.8435395,8.16516491 L13.6918693,6.59767086 C13.6278876,6.50586535 13.5218127,6.44976199 13.4039517,6.44976199 L8.55986496,6.44976199 C8.44200397,6.44976199 8.32919417,6.51096566 8.26857994,6.60617137 L7.19099374,8.17536552 C7.15058425,8.23486909 7.12869578,8.30627338 7.12869578,8.37937776 L7.12869578,14.6561544 C7.12869578,14.8567664 7.28528253,15.0148759 7.48396249,15.0148759 L14.5589894,15.0148759 C14.7576694,15.0148759 14.9142561,14.8567664 14.9142561,14.6561544 L14.9142561,8.38107786 C14.9142561,8.37257735 14.9142561,8.36577695 14.9125724,8.34877593 L14.9125724,8.34877593 Z M8.16082132,8.02235634 L8.74507509,7.16890513 L13.2254765,7.16890513 L13.8501397,8.02235634 L8.16082132,8.02235634 Z M7.83922919,14.2991329 L7.83922919,8.73979939 L14.2037227,8.73979939 L14.2037227,14.2991329 L7.83922919,14.2991329 Z" id="形状" fill="#4A4A5A" fill-rule="nonzero"></path>
                    <g id="编组-80" transform="translate(8.998106, 9.031469)">
                        <rect id="矩形" x="0" y="0" width="4.5" height="4.51764706"></rect>
                        <path d="M2.0512859,4.51764706 C0.9183923,4.51764706 5.82275391e-07,3.5956538 5.82275391e-07,2.45831749 C5.82275391e-07,1.32098117 0.9183923,0.398987913 2.0512859,0.398987913 C2.09745156,0.398987913 2.14167831,0.417622621 2.17399758,0.450717546 C2.20631684,0.483812471 2.22400865,0.528573109 2.22308534,0.574910546 L2.22308534,2.28584433 L3.92733578,2.28584433 C4.02221799,2.28584433 4.09913522,2.36306319 4.09913522,2.45831749 C4.09787801,3.59378482 3.18231411,4.51448137 2.0512859,4.51764706 L2.0512859,4.51764706 Z M1.78527832,0.976838235 C0.9978102,1.05651582 0.520780908,1.71581384 0.547275944,2.50992981 C0.57377098,3.30404577 1.20886123,3.94162658 1.99987519,3.96822552 C2.79088914,3.99482446 3.49009166,3.50816652 3.56945801,2.71761029 L1.97325519,2.71761029 C1.88970222,2.71761029 1.78527832,2.65917395 1.78527832,2.57529332 L1.78527832,0.976838235 Z" id="形状" fill="#4A4A5A" fill-rule="nonzero"></path>
                        <path d="M2.52177772,0.316235294 C3.44116377,0.317772495 4.18551381,1.06291066 4.18499973,1.98121807 C4.18499973,2.05814595 4.12256377,2.12050831 4.04554544,2.12050831 L2.5236371,2.12050831 L2.5245668,2.12329412 C2.48739044,2.12246906 2.45201568,2.10713577 2.42601928,2.08057844 C2.40118167,2.05586181 2.38657654,2.02270731 2.38511276,1.98771827 L2.38511276,0.461097154 C2.38360613,0.423678222 2.39724816,0.387229574 2.42296105,0.359974475 C2.44867394,0.332719375 2.48429141,0.316954029 2.52177772,0.316235294 Z M2.7555542,0.769485294 L2.7555542,1.70085005 L3.68624268,1.70085005 C3.58738403,1.13856618 3.15807495,0.794283088 2.7555542,0.769485294 Z" id="形状结合" fill="#4A4A5A" fill-rule="nonzero"></path>
                    </g>
                </g>
            </g>
        </g>
    </g>
</svg>