<?xml version="1.0" encoding="UTF-8"?>
<svg width="28px" height="28px" viewBox="0 0 28 28" version="1.1" xmlns="http://www.w3.org/2000/svg" xmlns:xlink="http://www.w3.org/1999/xlink">
    <title>6.订单管理/订单明细</title>
    <g id="颜色优化" stroke="none" stroke-width="1" fill="none" fill-rule="evenodd">
        <g id="2.运单管理/运单详情" transform="translate(-808.000000, -110.000000)">
            <g id="Drawer/抽屉" transform="translate(776.000000, 0.000000)">
                <g id="编组-9" transform="translate(16.000000, 100.000000)">
                    <g id="编组-16" transform="translate(16.000000, 10.000000)">
                        <circle id="椭圆形" fill="#477AEF" cx="14" cy="14" r="14"></circle>
                        <g id="货车-(1)" transform="translate(7.538462, 6.461538)" fill="#FFFEFC" fill-rule="nonzero">
                            <path d="M12.2053846,0 L0.7176923,0 C0.323076917,0 0,0.316603385 0,0.703106241 L0,7.42350436 L0.629538459,3.34786387 C0.629538459,3.34786387 1.62461538,2.11068928 3.64153846,2.11068928 L9.26907692,2.11068928 C11.286,2.11068928 12.2810769,3.34786387 12.2810769,3.34786387 L12.9230769,7.50254099 L12.9230769,0.703106241 C12.9230769,0.316603385 12.6,0 12.2053846,0 Z M6.40476922,2.49289651 C6.42753344,2.49289651 6.44972856,2.49289651 6.47363101,2.50158477 C6.49810255,2.49289665 6.51915946,2.49289665 6.54476922,2.49289651 L6.40476922,2.49289651 L6.40476922,2.49289651 Z M10.3273846,3.10161678 C9.57876923,2.79552114 7.78569231,2.78227224 6.46246153,2.77267819 C5.13784615,2.78227224 3.3433846,2.79552114 2.59476922,3.10161678 C1.83646152,3.41182415 1.49030767,3.36887939 1.33292307,4.1437125 L0.60276922,8.43818852 L0.60276922,13.3005405 L1.58307692,13.3005405 L1.58307692,14.2288783 C1.58307692,15.3596047 3.2076923,15.3596047 3.2076923,14.2288783 L3.2076923,13.3005405 L9.71538461,13.3005405 L9.71538461,14.2288783 C9.71538461,15.3596047 11.34,15.3596047 11.34,14.2288783 L11.34,13.3005405 L12.3203077,13.3005405 L12.3203077,8.43773167 L11.5901538,4.1437125 C11.4323077,3.36887938 11.0870769,3.41136728 10.3273846,3.10207364 L10.3273846,3.10161678 Z M1.63384615,8.29564847 L2.07692307,5.18123964 C2.13738461,4.8025034 2.26892307,4.55397203 2.77061538,4.55397203 L10.1510769,4.55397203 C10.6513846,4.55397203 10.7833846,4.8025034 10.8433846,5.18123964 L11.2864615,8.29564847 C11.3275385,8.59443436 11.2403077,8.89047909 10.8189231,8.89047909 L2.10184615,8.89047909 C1.68092308,8.89047909 1.59276922,8.59443436 1.63430769,8.29564847 L1.63384615,8.29564847 Z M3.42461538,11.2798525 C3.42437111,11.3659603 3.38954841,11.4484384 3.32782107,11.5091115 C3.26609372,11.5697845 3.18252778,11.6036729 3.09553846,11.6033139 L1.76215384,11.6033139 C1.67504204,11.6037946 1.59130981,11.5699745 1.52940922,11.5093014 C1.46750863,11.4486283 1.43252003,11.3660817 1.43215384,11.2798525 L1.43215384,10.7256823 C1.43251958,10.6394946 1.46752296,10.5569945 1.52943704,10.4963939 C1.59135112,10.4357932 1.67508474,10.4020752 1.76215384,10.4026748 L3.09507692,10.4026748 C3.18198656,10.4023186 3.26548271,10.4361443 3.32719677,10.4967187 C3.38891084,10.557293 3.4237874,10.6396538 3.42415384,10.7256823 L3.42415384,11.2798525 L3.42461538,11.2798525 Z M11.49,11.2798525 C11.4897557,11.3659603 11.454933,11.4484384 11.3932057,11.5091115 C11.3314783,11.5697845 11.2479124,11.6036729 11.1609231,11.6033139 L9.82707692,11.6033139 C9.73996511,11.6037946 9.65623289,11.5699745 9.5943323,11.5093014 C9.53243171,11.4486283 9.49744311,11.3660817 9.49707692,11.2798525 L9.49707692,10.7256823 C9.49744266,10.6394946 9.53244604,10.5569945 9.59436012,10.4963939 C9.6562742,10.4357932 9.74000782,10.4020752 9.82707692,10.4026748 L11.1609231,10.4026748 C11.2478327,10.4023186 11.3313289,10.4361443 11.3930429,10.4967187 C11.454757,10.557293 11.4896335,10.6396538 11.49,10.7256823 L11.49,11.2798525 L11.49,11.2798525 Z" id="形状"></path>
                        </g>
                    </g>
                </g>
            </g>
        </g>
    </g>
</svg>