<?xml version="1.0" encoding="UTF-8"?>
<svg width="310px" height="120px" viewBox="0 0 310 120" version="1.1" xmlns="http://www.w3.org/2000/svg" xmlns:xlink="http://www.w3.org/1999/xlink">
    <title>1.生产监控备份 3</title>
    <defs>
        <linearGradient x1="50%" y1="0%" x2="50%" y2="93.4570485%" id="linearGradient-1">
            <stop stop-color="#88F2FD" stop-opacity="0.25857736" offset="0%"></stop>
            <stop stop-color="#3DD5EF" stop-opacity="0" offset="100%"></stop>
        </linearGradient>
        <linearGradient x1="8.79669189%" y1="55.8513099%" x2="96.5573535%" y2="50%" id="linearGradient-2">
            <stop stop-color="#60F6FF" stop-opacity="0.114291958" offset="0%"></stop>
            <stop stop-color="#76D8E0" offset="50%"></stop>
            <stop stop-color="#37FFDD" stop-opacity="0" offset="100%"></stop>
        </linearGradient>
    </defs>
    <g id="智慧工厂" stroke="none" stroke-width="1" fill="none" fill-rule="evenodd">
        <g id="1.生产监控备份-3" transform="translate(-1114.000000, -128.000000)">
            <g id="发货备份-3" transform="translate(852.000000, 128.000000)">
                <g id="编组-12" transform="translate(262.000000, -9.441662)">
                    <g id="编组备份" transform="translate(38.932830, 14.500000) scale(-1, 1) rotate(-12.000000) translate(-38.932830, -14.500000) translate(11.432830, 6.000000)" fill="#A1DED9" fill-opacity="0.501119974">
                        <path d="M23.0671379,14.1532582 C22.9092831,15.719858 21.5342587,16.8598007 19.9959191,16.699046 C18.4570831,16.5382914 17.337704,15.138007 17.4960551,13.5709016 C17.6539099,12.0043019 19.0289344,10.8643591 20.567274,11.0256193 C22.1056136,11.186374 23.2249927,12.5866584 23.0671379,14.1532582" id="Fill-1"></path>
                        <path d="M39.4337858,3.71721321 C39.2928757,5.09052141 38.0654518,6.08981473 36.6922437,5.94889444 C35.3185924,5.80797414 34.3193718,4.58001769 34.4602819,3.20670948 C34.601635,1.83340128 35.8290589,0.834107956 37.2022671,0.975471402 C38.5754753,1.11594856 39.5746958,2.343905 39.4337858,3.71721321" id="Fill-3"></path>
                        <path d="M5.42154067,3.30451261 C5.28076075,4.67796015 4.05291504,5.67683109 2.67939273,5.53605884 C1.30627847,5.39487855 0.306945088,4.16750772 0.448133062,2.79406018 C0.588912979,1.42061264 1.81675869,0.421741704 3.18987294,0.562513956 C4.56339526,0.703286209 5.56272864,1.93106507 5.42154067,3.30451261" id="Fill-5"></path>
                        <path d="M54.6110438,10.078041 C54.4557256,11.5994418 53.1054451,12.7059151 51.5944597,12.5499783 C50.0834743,12.3935895 48.9845758,11.0340014 49.1394451,9.51260066 C49.2947632,7.99119992 50.6450437,6.88472665 52.1560292,7.04066345 C53.6665657,7.19705224 54.7659131,8.5566403 54.6110438,10.078041" id="Fill-7"></path>
                        <polygon id="Fill-9" points="19.8120634 13.254278 19.7476394 13.213934 2.72193327 2.47258351 2.85744581 2.25427796 19.8191722 12.9557328 36.9990516 3.25660079 37.0554782 3.27901409 51.7219333 9.08540392 51.6286296 9.32432971 37.0181567 3.54035318"></polygon>
                    </g>
                    <path d="M232.502281,24.9416624 C235.857124,24.9416624 238.305417,26.4739583 240.297034,29.0913861 C242.789237,32.3666945 244.554375,37.3841443 246.563882,43.1364866 C249.955525,52.8452825 254.07066,64.676916 263.881582,73.5353899 C267.128797,76.4673642 270.501788,78.1079756 274.00985,78.4337872 C277.518967,78.7596969 281.153792,77.7693933 284.919126,75.4879204 C292.885807,70.6607875 301.40181,60.1055215 310.5,43.8600215 L310.5,43.8600215 L310.5,151.941662 L21.2733431,151.941662 C22.7062065,148.051034 24.6925162,145.171702 27.2128606,143.287671 C29.600754,141.502652 32.4714619,140.60364 35.8295932,140.60364 C42.2195696,140.60364 49.8967869,135.002556 58.9162203,123.982354 C59.7665996,122.972171 60.8287999,122.305482 62.1025505,121.981856 C63.3373053,121.668138 64.7775381,121.679557 66.4240463,122.031619 C69.5879101,122.708127 73.5456126,124.654619 78.2896059,127.891778 C81.7442736,130.24914 84.7350532,130.735688 87.405613,130.121516 C91.1372524,129.263318 94.2289524,126.315983 97.0718141,123.48541 L97.0718141,123.48541 L98.0527509,122.505829 C101.00861,119.556632 103.752156,117.041662 106.613139,117.041662 C110.048907,117.041662 113.074753,119.28029 115.989113,121.796452 L115.989113,121.796452 L116.613973,122.340109 L117.544189,123.156454 C120.697894,125.920949 123.790527,128.598543 127.365394,127.816341 C134.723336,126.20638 150.524517,101.114315 155.093621,89.1126855 C156.826927,84.5598249 161.150651,76.2846643 166.492062,70.2007727 C170.195906,65.9820772 174.392441,62.8428579 178.541374,62.5808189 C181.879881,62.369965 185.230228,63.9689276 188.29916,68.4471384 C190.892082,72.2307517 193.293716,78.1032734 195.321936,86.6952107 C196.625371,92.2168198 197.916758,95.6582028 199.231972,97.4110843 C199.820332,98.1952341 200.396185,98.6297871 200.999541,98.6693103 C201.630435,98.7106374 202.242712,98.318666 202.866889,97.6563773 C206.562219,93.7354123 210.311093,80.4531098 214.257434,66.3606161 L214.577843,65.2163749 C214.856369,64.2218178 215.135728,63.2242857 215.416072,62.2262556 L215.416072,62.2262556 L216.176811,59.5275843 C218.997274,49.5656562 221.908539,39.8626878 224.933134,33.3298938 C226.156152,30.6883093 227.40205,28.5595675 228.663746,27.1235873 C229.92409,25.6891472 231.2143,24.9416624 232.502281,24.9416624 Z" id="路径-5" stroke="url(#linearGradient-2)" fill="url(#linearGradient-1)"></path>
                    <circle id="椭圆形" fill="#5DD4E5" cx="205.5" cy="92.9416624" r="1.5"></circle>
                    <circle id="椭圆形备份" fill="#5DD4E5" cx="179.5" cy="62.9416624" r="1.5"></circle>
                    <circle id="椭圆形备份-2" fill="#5DD4E5" cx="106.5" cy="116.941662" r="1.5"></circle>
                </g>
            </g>
        </g>
    </g>
</svg>