<?xml version="1.0" encoding="UTF-8"?>
<svg width="40px" height="40px" viewBox="0 0 40 40" version="1.1" xmlns="http://www.w3.org/2000/svg" xmlns:xlink="http://www.w3.org/1999/xlink">
    <!-- Generator: Sketch 54.1 (76490) - https://sketchapp.com -->
    <title>财务管理icon</title>
    <desc>Created with Sketch.</desc>
    <defs>
        <filter x="-48.6%" y="-48.6%" width="197.2%" height="197.2%" filterUnits="objectBoundingBox" id="filter-1">
            <feGaussianBlur stdDeviation="5" in="SourceGraphic"></feGaussianBlur>
        </filter>
    </defs>
    <g id="财务管理icon" stroke="none" stroke-width="1" fill="none" fill-rule="evenodd">
        <g id="编组-7" transform="translate(1.000000, 1.000000)">
            <g id="编组-3复制" fill="#3D86EF">
                <circle id="椭圆形复制" filter="url(#filter-1)" cx="19" cy="21.375" r="15.4375"></circle>
                <circle id="椭圆形" cx="19" cy="19" r="19"></circle>
            </g>
            <g id="财务-(1)" transform="translate(9.500000, 9.500000)" fill="#FFFFFF" fill-rule="nonzero">
                <path d="M13.3,10.6863415 C13.68,10.6863415 13.9333333,10.4490732 13.9333333,10.0931707 C13.9333333,9.73726829 13.68,9.5 13.3,9.5 L10.1333333,9.5 L12.54,7.24595122 C12.7933333,7.00868293 12.7933333,6.65278049 12.54,6.4155122 C12.2866667,6.1782439 11.9066667,6.1782439 11.6533333,6.4155122 L9.56333333,8.37297561 L7.47333333,6.4155122 C7.22,6.1782439 6.84,6.1782439 6.58666667,6.4155122 C6.33333333,6.65278049 6.33333333,7.00868293 6.58666667,7.24595122 L8.86666667,9.38136585 L8.86666667,9.5 L5.7,9.5 C5.32,9.5 5.06666667,9.73726829 5.06666667,10.0931707 C5.06666667,10.4490732 5.44666667,10.6863415 5.7,10.6863415 L8.86666667,10.6863415 L8.86666667,11.8726829 L5.7,11.8726829 C5.32,11.8726829 5.06666667,12.1099512 5.06666667,12.4658537 C5.06666667,12.8217561 5.44666667,13.0590244 5.7,13.0590244 L8.86666667,13.0590244 L8.86666667,15.0758049 C8.86666667,15.4317073 9.12,15.6689756 9.5,15.6689756 C9.88,15.6689756 10.1333333,15.4317073 10.1333333,15.0758049 L10.1333333,13.0590244 L13.3,13.0590244 C13.68,13.0590244 13.9333333,12.8217561 13.9333333,12.4658537 C13.9333333,12.1099512 13.68,11.8726829 13.3,11.8726829 L10.1333333,11.8726829 L10.1333333,10.6863415 L13.3,10.6863415 Z" id="路径"></path>
                <path d="M16.4666667,2.38195122 C16.4666667,1.07697561 15.3266667,0.00926829268 13.9333333,0.00926829268 L2.53333333,0.00926829268 C1.14,0.00926829268 0,1.07697561 0,2.38195122 L0,16.6180488 C0,17.9230244 1.14,18.9907317 2.53333333,18.9907317 L16.4666667,18.9907317 C17.86,18.9907317 19,17.9230244 19,16.6180488 L19,4.75463415 C19,3.44965854 17.86,2.38195122 16.4666667,2.38195122 Z M17.7333333,16.6180488 C17.7333333,17.3298537 17.2266667,17.8043902 16.4666667,17.8043902 L2.53333333,17.8043902 C1.77333333,17.8043902 1.26666667,17.3298537 1.26666667,16.6180488 L1.26666667,2.38195122 C1.26666667,1.67014634 1.77333333,1.19560976 2.53333333,1.19560976 L13.9333333,1.19560976 C14.6933333,1.19560976 15.2,1.67014634 15.2,2.38195122 L5.06666667,2.38195122 C4.712,2.38195122 4.43333333,2.64294634 4.43333333,2.97512195 C4.43333333,3.30729756 4.712,3.56829268 5.06666667,3.56829268 L16.4666667,3.56829268 C17.2266667,3.56829268 17.7333333,4.04282927 17.7333333,4.75463415 L17.7333333,16.6180488 Z" id="形状"></path>
            </g>
        </g>
    </g>
</svg>