<?xml version="1.0" encoding="UTF-8"?>
<svg width="103px" height="116px" viewBox="0 0 103 116" version="1.1" xmlns="http://www.w3.org/2000/svg" xmlns:xlink="http://www.w3.org/1999/xlink">
    <title>编组 66</title>
    <g id="运单管理" stroke="none" stroke-width="1" fill="none" fill-rule="evenodd">
        <g id="11.联系客服弹窗" transform="translate(-1236.000000, -327.000000)" fill-rule="nonzero">
            <g id="编组-66" transform="translate(1136.000000, 0.000000)">
                <g id="客服" transform="translate(100.000000, 327.000000)">
                    <g id="编组-3" transform="translate(2.019176, 1.004011)">
                        <path d="M49.844697,9.9475983e-14 C30.1041667,9.9475983e-14 21.3636364,10.6431457 21.3636364,28.3829801 L21.3636364,78.0560265 L78.3276515,78.0560265 L78.3276515,28.3829801 C78.3257576,10.6431457 66.6799242,9.9475983e-14 49.844697,9.9475983e-14 Z" id="路径" fill="#6981AB"></path>
                        <polygon id="路径" fill="#F1CFAA" points="56.9659091 53.2195033 42.7234848 53.2195033 39.1647727 67.4109934 39.1647727 113.535695 60.5246212 113.535695 60.5246212 67.4109934"></polygon>
                        <path d="M7.12121212,85.1508278 C0.428030303,91.8209603 2.13162821e-14,113.533808 2.13162821e-14,113.533808 L49.844697,113.533808 L35.6041667,70.9593377 C35.6041667,70.9593377 10.4659091,81.8157616 7.12121212,85.1508278 Z M92.5681818,85.1508278 C89.219697,81.8138742 64.0871212,70.9593377 64.0871212,70.9593377 L49.844697,113.535695 L99.6875,113.535695 C99.6875,113.535695 99.2613636,91.8209603 92.5681818,85.1508278 L92.5681818,85.1508278 Z" id="形状" fill="#3D86EF"></path>
                        <path d="M60.5246212,67.4109934 L49.844697,113.535695 L53.405303,113.535695 L64.0852273,88.6991722 L81.8863636,85.1508278 L60.5246212,67.4109934 Z M17.8030303,85.1508278 L35.6041667,88.6991722 L46.2840909,113.535695 L49.844697,113.535695 L39.1647727,67.4109934 L17.8030303,85.1508278 Z" id="形状" fill="#FFFFFF"></path>
                        <path d="M59.6420455,21.225894 C56.8560606,27.3656623 47.2443182,31.9313245 35.6041667,31.9313245 L28.5340909,31.9313245 C28.6893939,38.8826821 29.3390152,44.2769205 32.0454545,49.6711589 C35.6060606,56.7678477 42.8712121,63.862649 49.8465909,63.862649 C56.8219697,63.862649 64.0871212,56.7659603 67.6477273,49.6711589 C70.8181818,43.3539735 71.1647727,37.0349007 71.2026515,28.2131126 C70.9924242,24.225 63.4375,21.225894 59.6420455,21.225894 L59.6420455,21.225894 Z" id="路径" fill="#FFDDB7"></path>
                        <path d="M81.1666667,23.130298 C78.0568182,11.9379139 65.2159091,3.54834437 49.844697,3.54834437 C34.4734848,3.54834437 21.6325758,11.9379139 18.5227273,23.130298 C16.1477273,24.4288411 14.2424242,26.3011589 14.2424242,28.3829801 L14.2424242,35.4796689 C14.2424242,39.397947 20.9905303,42.5763576 24.9223485,42.5763576 L24.9223485,28.3848675 C24.9223485,18.5872848 36.0795455,10.6450331 49.844697,10.6450331 C63.6098485,10.6450331 74.7670455,18.5872848 74.7670455,28.3848675 L74.7670455,35.4815563 C74.7670455,43.0859603 69.9659091,49.5711258 63.2215909,52.0946026 C62.2689394,50.6375166 60.6193182,49.6730464 58.7462121,49.6730464 L51.625,49.6730464 C48.6761364,49.6730464 46.2840909,52.0568543 46.2840909,54.9955629 C46.2840909,57.9342715 48.6761364,60.3180795 51.625,60.3180795 L58.7462121,60.3180795 C59.2670455,60.3180795 59.7689394,60.2425828 60.2443182,60.1048013 C70.7481061,58.7288742 79.1912879,50.8356954 81.3503788,40.6323179 C83.6401515,39.3394371 85.4488636,37.5105298 85.4488636,35.4834437 L85.4488636,28.386755 C85.4469697,26.3011589 83.5416667,24.4288411 81.1666667,23.130298 L81.1666667,23.130298 Z" id="路径" fill="#4A4A5A"></path>
                    </g>
                </g>
            </g>
        </g>
    </g>
</svg>