<?xml version="1.0" encoding="UTF-8"?>
<svg width="32px" height="32px" viewBox="0 0 32 32" version="1.1" xmlns="http://www.w3.org/2000/svg" xmlns:xlink="http://www.w3.org/1999/xlink">
    <title>编组 68</title>
    <g id="运单管理" stroke="none" stroke-width="1" fill="none" fill-rule="evenodd">
        <g id="10.联系客服" transform="translate(-1392.000000, -1085.000000)" fill-rule="nonzero">
            <g id="编组-68" transform="translate(1376.000000, 1080.000000)">
                <g id="客服热线-线性" transform="translate(16.000000, 5.000000)">
                    <rect id="矩形" fill="#000000" opacity="0" x="0" y="0" width="32" height="32"></rect>
                    <path d="M23.5355736,19.2753969 C22.1127594,18.1225857 19.9682602,17.3767374 19.3969163,18.0561455 C18.8465546,18.7105076 18.3959581,19.1687973 17.8200285,19.0938742 C15.8046482,18.8318448 14.367597,16.9711435 13.7341865,16.0281491 C12.3512037,13.9683688 12.7069672,13.457088 13.2622612,13.1395978 C14.2947327,12.5496357 14.8385358,10.844391 13.7373858,9.58009452 C12.6394084,8.31920724 10.7539469,4.58304013 8.25483058,6.57219249 C5.95332514,8.40352589 5.36227881,10.7125307 6.7194805,13.9194849 C8.01309586,16.9771835 14.7549805,25.6475352 20.9143502,25.9924604 C24.1285662,26.1721577 25.9653715,23.0887689 25.9994708,22.1818535 C26.0283446,21.4095902 24.8714732,20.3576339 23.5355736,19.2753969 L23.5355736,19.2753969 Z M24.5239213,22.2194358 C24.187087,22.8804822 23.9353544,23.2917403 23.3394025,23.7760155 C22.8647844,24.1612613 22.0656495,24.6999503 21.078315,24.625591 C15.3803661,24.1972061 9.59520922,16.6034004 8.28906322,13.9825964 C7.63520373,12.6709998 7.26858917,10.9467492 7.45561565,10.0824092 C7.70910784,8.91161219 8.2618424,8.26530344 9.11237963,7.65544955 C10.292686,6.80960546 11.409406,8.52497052 12.5972575,10.36527 C13.0332704,11.040544 13.3162496,11.6830408 12.357389,12.3161689 C11.5218885,12.8681728 11.3240377,14.1210068 12.0131963,15.5392029 C12.9856807,17.5402206 15.9207833,20.6997673 18.0063085,20.637327 C19.1581143,20.6026707 19.8348489,19.6905206 20.1508076,19.3593129 C20.557227,18.9343104 21.7259625,19.6322948 22.588977,20.270067 C23.4568439,20.9115975 24.6712496,21.9304813 24.5239213,22.2194358 L24.5239213,22.2194358 Z" id="形状" fill="#FFFFFF"></path>
                </g>
            </g>
        </g>
    </g>
</svg>