<?xml version="1.0" encoding="UTF-8"?>
<svg width="24px" height="24px" viewBox="0 0 24 24" version="1.1" xmlns="http://www.w3.org/2000/svg" xmlns:xlink="http://www.w3.org/1999/xlink">
    <title>1.过磅管理/人工结算</title>
    <defs>
        <linearGradient x1="47.5799561%" y1="0%" x2="47.5799561%" y2="100%" id="linearGradient-1">
            <stop stop-color="#3D86EF" offset="0%"></stop>
            <stop stop-color="#3585F9" offset="100%"></stop>
        </linearGradient>
    </defs>
    <g id="过磅管理" stroke="none" stroke-width="1" fill="none" fill-rule="evenodd">
        <g id="1.过磅管理/人工结算" transform="translate(-856.000000, -140.000000)">
            <g id="编组-55" transform="translate(856.000000, 140.000000)">
                <circle id="椭圆形" fill="url(#linearGradient-1)" cx="12" cy="12" r="12"></circle>
                <g id="编组-54" transform="translate(7.000000, 6.000000)">
                    <rect id="Rectangle-35-Copy-2" x="0" y="0" width="12" height="12"></rect>
                    <path d="M7.424,0.999 L9.19629919,1 C9.60582389,1 9.94316334,1.3364213 9.99351524,1.77201697 L10,1.88284472 L10,6 C8.34314575,6 7,7.34314575 7,9 C7,10.4718932 8.06000307,11.6962094 9.45827739,11.9512168 C9.40758376,11.9716051 9.35376367,11.9854877 9.29816639,11.9931285 L9.19741389,12 L0.802586111,12 C0.393061403,12 0.0557219548,11.6635787 0.00624680132,11.227983 L0,11.1171553 L0,1.88284472 C0,1.43236754 0.305837548,1.06129415 0.701833608,1.00687148 L0.802586111,1 L2.25256734,0.999220217 C2.25711812,1.49260217 2.63014323,1.89793176 3.10975244,1.95331873 L3.22220431,1.95976913 L6.45456337,1.95976913 C6.95184954,1.95976913 7.36170507,1.58543405 7.41771868,1.10317514 L7.424,0.999 Z M5.5,9 L1.5,9 C1.22385763,9 1,9.22385763 1,9.5 C1,9.74545989 1.17687516,9.94960837 1.41012437,9.99194433 L1.5,10 L5.5,10 C5.77614237,10 6,9.77614237 6,9.5 C6,9.22385763 5.77614237,9 5.5,9 Z M6.5,6 L1.5,6 C1.22385763,6 1,6.22385763 1,6.5 C1,6.74545989 1.17687516,6.94960837 1.41012437,6.99194433 L1.5,7 L6.5,7 C6.77614237,7 7,6.77614237 7,6.5 C7,6.22385763 6.77614237,6 6.5,6 Z M8.5,3 L1.5,3 C1.22385763,3 1,3.22385763 1,3.5 C1,3.74545989 1.17687516,3.94960837 1.41012437,3.99194433 L1.5,4 L8.5,4 C8.77614237,4 9,3.77614237 9,3.5 C9,3.22385763 8.77614237,3 8.5,3 Z M6,4.54969395e-13 C6.36818983,4.54457671e-13 6.66666667,0.298476833 6.66666667,0.666666667 C6.66666667,1.0348565 6.36818983,1.33333333 6,1.33333333 L3.66666667,1.33333333 C3.29847683,1.33333333 3,1.0348565 3,0.666666667 C3,0.298476833 3.29847683,4.55037031e-13 3.66666667,4.54969395e-13 L6,4.54969395e-13 Z" id="形状结合" fill="#FAFCFF" fill-rule="nonzero"></path>
                    <path d="M10,6.99992657 C10.530386,6.99992657 11.0390487,7.21062158 11.4140882,7.58566109 C11.9861372,8.15762544 12.1573005,9.01787175 11.8477604,9.76524595 C11.5382203,10.5126202 10.8089396,10.9999294 10,10.9999294 C9.19106039,10.9999294 8.46177975,10.5126202 8.15223962,9.76524596 C7.84269949,9.01787176 8.01386276,8.15762545 8.58591178,7.5856611 C8.96095129,7.21062158 9.46961403,6.99992658 10,6.99992657 Z M11.1118273,8.14689777 L11.0528512,8.19395016 L9.5662685,9.560944 L8.88815578,8.8846376 C8.78129506,8.77777688 8.61572428,8.76431136 8.49018574,8.84305833 L8.43120963,8.89011071 C8.32175801,8.99956233 8.30432178,9.16550324 8.38008362,9.28919114 L8.42573652,9.34705686 L9.32868259,10.2500029 C9.43554331,10.3568637 9.6011141,10.3703292 9.72665264,10.2915822 L9.78562874,10.2445298 L11.5043243,8.64542319 C11.6320178,8.51772964 11.6344682,8.31314788 11.5097974,8.18847704 C11.4029367,8.08161633 11.2373659,8.0681508 11.1118273,8.14689777 Z" id="形状结合" fill="#FAFCFF" fill-rule="nonzero"></path>
                </g>
            </g>
        </g>
    </g>
</svg>