<?xml version="1.0" encoding="UTF-8"?>
<svg width="24px" height="24px" viewBox="0 0 24 24" version="1.1" xmlns="http://www.w3.org/2000/svg" xmlns:xlink="http://www.w3.org/1999/xlink">
    <title>1.过磅管理/人工结算</title>
    <defs>
        <linearGradient x1="50%" y1="100%" x2="50%" y2="0%" id="linearGradient-1">
            <stop stop-color="#FFAF2C" offset="0%"></stop>
            <stop stop-color="#FFB741" offset="100%"></stop>
        </linearGradient>
    </defs>
    <g id="过磅管理" stroke="none" stroke-width="1" fill="none" fill-rule="evenodd">
        <g id="1.过磅管理/人工结算" transform="translate(-240.000000, -140.000000)">
            <g id="编组-53" transform="translate(240.000000, 140.000000)">
                <circle id="椭圆形" fill="url(#linearGradient-1)" cx="12" cy="12" r="12"></circle>
                <g id="编组-52" transform="translate(7.000000, 6.000000)">
                    <rect id="Rectangle-35-Copy-2" x="0" y="0" width="12" height="12"></rect>
                    <path d="M7.424,0.999 L9.19629919,1 C9.60582389,1 9.94316334,1.3364213 9.99351524,1.77201697 L10,1.88284472 L10,6 C8.34314575,6 7,7.34314575 7,9 C7,10.4718932 8.06000307,11.6962094 9.45827739,11.9512168 C9.40758376,11.9716051 9.35376367,11.9854877 9.29816639,11.9931285 L9.19741389,12 L0.802586111,12 C0.393061403,12 0.0557219548,11.6635787 0.00624680132,11.227983 L0,11.1171553 L0,1.88284472 C0,1.43236754 0.305837548,1.06129415 0.701833608,1.00687148 L0.802586111,1 L2.25256734,0.999220217 C2.25711812,1.49260217 2.63014323,1.89793176 3.10975244,1.95331873 L3.22220431,1.95976913 L6.45456337,1.95976913 C6.95184954,1.95976913 7.36170507,1.58543405 7.41771868,1.10317514 L7.424,0.999 Z M5.5,9 L1.5,9 C1.22385763,9 1,9.22385763 1,9.5 C1,9.74545989 1.17687516,9.94960837 1.41012437,9.99194433 L1.5,10 L5.5,10 C5.77614237,10 6,9.77614237 6,9.5 C6,9.22385763 5.77614237,9 5.5,9 Z M6.5,6 L1.5,6 C1.22385763,6 1,6.22385763 1,6.5 C1,6.74545989 1.17687516,6.94960837 1.41012437,6.99194433 L1.5,7 L6.5,7 C6.77614237,7 7,6.77614237 7,6.5 C7,6.22385763 6.77614237,6 6.5,6 Z M8.5,3 L1.5,3 C1.22385763,3 1,3.22385763 1,3.5 C1,3.74545989 1.17687516,3.94960837 1.41012437,3.99194433 L1.5,4 L8.5,4 C8.77614237,4 9,3.77614237 9,3.5 C9,3.22385763 8.77614237,3 8.5,3 Z M6,6.05959727e-13 C6.36818983,6.05448002e-13 6.66666667,0.298476833 6.66666667,0.666666667 C6.66666667,1.0348565 6.36818983,1.33333333 6,1.33333333 L3.66666667,1.33333333 C3.29847683,1.33333333 3,1.0348565 3,0.666666667 C3,0.298476833 3.29847683,6.06027362e-13 3.66666667,6.05959727e-13 L6,6.05959727e-13 Z" id="形状结合" fill="#FFFCF8" fill-rule="nonzero"></path>
                    <g id="编组-50" transform="translate(8.000000, 7.000000)" fill="#FFFCF8" fill-rule="nonzero">
                        <path d="M2.00017726,0 C2.53056323,0 3.03922597,0.210695006 3.41426549,0.585734521 C3.789305,0.960774037 4,1.46943678 4,1.99982274 C4.00005987,2.80876235 3.51280458,3.53807906 2.76545329,3.84767451 C2.01810199,4.15726995 1.15784302,3.98617035 0.585836333,3.41416366 C0.0138296508,2.84215697 -0.15726995,1.98189799 0.152325496,1.2345467 C0.461920943,0.487195413 1.19123766,-5.98754927e-05 2.00017726,0 Z M2,0.75 C1.86192881,0.75 1.75,0.861928813 1.75,1 L1.75,1 L1.75,2.37597656 L1.75660268,2.43329927 C1.78251318,2.54374315 1.88165327,2.62597656 2,2.62597656 L2,2.62597656 L3,2.62597656 L3.05732271,2.61937388 C3.16776659,2.59346338 3.25,2.49432329 3.25,2.37597656 L3.25,2.37597656 L3.24339732,2.31865386 C3.21748682,2.20820998 3.11834673,2.12597656 3,2.12597656 L3,2.12597656 L2.25,2.125 L2.25,1 L2.24339732,0.942677294 C2.21748682,0.832233413 2.11834673,0.75 2,0.75 Z" id="形状结合"></path>
                    </g>
                </g>
            </g>
        </g>
    </g>
</svg>