<?xml version="1.0" encoding="UTF-8"?>
<svg width="40px" height="40px" viewBox="0 0 40 40" version="1.1" xmlns="http://www.w3.org/2000/svg" xmlns:xlink="http://www.w3.org/1999/xlink">
    <!-- Generator: Sketch 54.1 (76490) - https://sketchapp.com -->
    <title>库存管理icon</title>
    <desc>Created with Sketch.</desc>
    <defs>
        <filter x="-48.6%" y="-48.6%" width="197.2%" height="197.2%" filterUnits="objectBoundingBox" id="filter-1">
            <feGaussianBlur stdDeviation="5" in="SourceGraphic"></feGaussianBlur>
        </filter>
    </defs>
    <g id="库存管理icon" stroke="none" stroke-width="1" fill="none" fill-rule="evenodd">
        <g id="编组-4" transform="translate(1.000000, 1.000000)">
            <g id="编组-3复制" fill="#3D86EF">
                <circle id="椭圆形复制" filter="url(#filter-1)" cx="19" cy="21.375" r="15.4375"></circle>
                <circle id="椭圆形" cx="19" cy="19" r="19"></circle>
            </g>
            <g id="管理-(1)" transform="translate(7.125000, 10.687500)" fill="#FFFFFF" fill-rule="nonzero">
                <path d="M0.658419512,5.03162172 C0.39742439,5.03162172 0.160156098,4.89957399 0.0533853659,4.68626611 C-0.017795122,4.54406086 -0.017795122,4.39169809 0.0533853659,4.25965036 C0.124565854,4.11744511 0.2432,4.01586993 0.409287805,3.95492482 L11.3948098,0.0442804296 C11.4778537,0.0138078759 11.5608976,0.003650358 11.6439415,0.003650358 C11.9049366,0.003650358 12.1422049,0.135698091 12.2489756,0.349005967 C12.3913366,0.633416468 12.2252488,0.958457041 11.8930732,1.08034726 L0.90755122,4.99099165 C0.836370732,5.0214642 0.753326829,5.03162172 0.658419512,5.03162172 Z" id="路径"></path>
                <path d="M12.059161,16.6111921 C11.9761171,16.6111921 11.8930732,16.6010346 11.8100293,16.5705621 L0.409287805,12.5177124 C0.0771121951,12.3958222 -0.0771121951,12.0707816 0.0533853659,11.7863711 C0.160156098,11.5832208 0.385560976,11.4410155 0.658419512,11.4410155 C0.741463415,11.4410155 0.824507317,11.451173 0.90755122,11.4816456 L12.3082927,15.5446527 C12.4743805,15.6055979 12.5930146,15.707173 12.6641951,15.8392208 C12.7353756,15.981426 12.7353756,16.1236313 12.6641951,16.2658365 C12.5574244,16.4791444 12.3201561,16.6111921 12.059161,16.6111921 L12.059161,16.6111921 Z M23.0802732,5.17382697 C22.9972293,5.17382697 22.9141854,5.16366945 22.8311415,5.1331969 L11.4304,1.08034726 C11.0982244,0.958457041 10.944,0.633416468 11.0744976,0.349005967 C11.1812683,0.145855609 11.4066732,0.003650358 11.6795317,0.003650358 C11.7625756,0.003650358 11.8456195,0.0138078759 11.9286634,0.0442804296 L23.3294049,4.10728759 C23.4954927,4.1682327 23.6141268,4.26980788 23.6853073,4.40185561 C23.7564878,4.53390334 23.7564878,4.68626611 23.6853073,4.82847136 C23.5785366,5.04177924 23.3412683,5.17382697 23.0802732,5.17382697 Z" id="形状"></path>
                <path d="M12.0710244,16.6111921 C11.8100293,16.6111921 11.572761,16.4791444 11.4659902,16.2658365 C11.3236293,15.981426 11.4897171,15.6563854 11.8218927,15.5344952 L22.8311415,11.6136933 C22.9141854,11.5832208 22.9972293,11.5730632 23.0802732,11.5730632 C23.3412683,11.5730632 23.5785366,11.705111 23.6853073,11.9184189 C23.7564878,12.0504666 23.7564878,12.2028294 23.6853073,12.3450346 C23.6141268,12.4770823 23.4954927,12.588815 23.3294049,12.6497601 L12.3201561,16.5705621 C12.2371122,16.6010346 12.1540683,16.6111921 12.0710244,16.6111921 L12.0710244,16.6111921 Z M12.059161,12.9849582 C11.9761171,12.9849582 11.8930732,12.9748007 11.8100293,12.9443282 L0.409287805,8.89147852 C0.0771121951,8.76958831 -0.0771121951,8.44454773 0.0533853659,8.16013723 C0.160156098,7.95698687 0.385560976,7.81478162 0.658419512,7.81478162 C0.741463415,7.81478162 0.824507317,7.82493914 0.90755122,7.85541169 L12.3082927,11.9082613 C12.4743805,11.9692064 12.5930146,12.0707816 12.6641951,12.2028294 C12.7353756,12.3348771 12.7353756,12.4872399 12.6641951,12.6294451 C12.5574244,12.8529105 12.3201561,12.9849582 12.059161,12.9849582 L12.059161,12.9849582 Z" id="形状"></path>
                <path d="M12.0710244,12.9849582 C11.8100293,12.9849582 11.572761,12.8529105 11.4659902,12.6396026 C11.3948098,12.5075549 11.3948098,12.3551921 11.4659902,12.2129869 C11.5371707,12.0809391 11.6558049,11.9692064 11.8218927,11.9082613 L22.8311415,7.98745943 C22.9141854,7.95698687 22.9972293,7.94682936 23.0802732,7.94682936 C23.3412683,7.94682936 23.5785366,8.07887709 23.6853073,8.29218496 C23.7564878,8.4242327 23.7564878,8.57659547 23.6853073,8.71880072 C23.6141268,8.86100597 23.4954927,8.96258115 23.3294049,9.02352625 L12.3201561,12.9443282 C12.2371122,12.9748007 12.1540683,12.9849582 12.0710244,12.9849582 Z M12.059161,9.1047864 C11.9761171,9.1047864 11.8930732,9.09462888 11.8100293,9.06415632 L0.409287805,5.01130668 C0.0771121951,4.88941647 -0.0771121951,4.56437589 0.0533853659,4.27996539 C0.160156098,4.07681504 0.385560976,3.93460979 0.658419512,3.93460979 C0.741463415,3.93460979 0.824507317,3.9447673 0.90755122,3.97523986 L12.3082927,8.0280895 C12.4743805,8.08903461 12.5930146,8.19060979 12.6641951,8.32265752 C12.7353756,8.45470525 12.7353756,8.60706802 12.6641951,8.74927327 C12.5574244,8.97273866 12.3201561,9.1047864 12.059161,9.1047864 L12.059161,9.1047864 Z" id="形状"></path>
                <path d="M12.0710244,9.1047864 C11.8100293,9.1047864 11.572761,8.97273866 11.4659902,8.75943079 C11.3236293,8.47502029 11.4897171,8.14997971 11.8218927,8.0280895 L22.8311415,4.10728759 C22.9141854,4.07681504 22.9972293,4.06665752 23.0802732,4.06665752 C23.3412683,4.06665752 23.5785366,4.19870525 23.6853073,4.41201313 C23.7564878,4.54406086 23.7564878,4.69642363 23.6853073,4.83862888 C23.6141268,4.97067661 23.4954927,5.08240931 23.3294049,5.14335442 L12.3201561,9.06415632 C12.2371122,9.08447136 12.1540683,9.1047864 12.0710244,9.1047864 L12.0710244,9.1047864 Z" id="路径"></path>
            </g>
        </g>
    </g>
</svg>