<?xml version="1.0" encoding="UTF-8"?>
<svg width="12px" height="16px" viewBox="0 0 12 16" version="1.1" xmlns="http://www.w3.org/2000/svg" xmlns:xlink="http://www.w3.org/1999/xlink">
    <!-- Generator: Sketch 61.2 (89653) - https://sketch.com -->
    <title>编组 14</title>
    <desc>Created with Sketch.</desc>
    <defs>
        <linearGradient x1="21.875%" y1="0%" x2="78.0240446%" y2="99.8205236%" id="linearGradient-1">
            <stop stop-color="#C8C8C8" offset="0%"></stop>
            <stop stop-color="#8E8E8E" offset="100%"></stop>
        </linearGradient>
    </defs>
    <g id="个人中心" stroke="none" stroke-width="1" fill="none" fill-rule="evenodd">
        <g id="编组-14" transform="translate(-2.000000, 0.000000)">
            <rect id="矩形" x="0" y="0" width="16" height="16"></rect>
            <g id="编组-13" transform="translate(2.000000, 0.000000)">
                <path d="M11.531322,2.31537392 L11.531322,2.31537392 L11.531322,2.31537392 C11.5174404,2.31537392 10.1711398,2.2833231 8.78138297,1.66336141 C7.35533065,1.02599735 6.43653434,0.295332392 6.42786677,0.288008164 L6.42710324,0.287401222 C6.21560218,0.119274955 5.91592975,0.119802438 5.70502187,0.288672227 L5.70502187,0.288672227 L5.70502187,0.288672227 C5.6963543,0.295332392 4.77757492,1.02668094 3.35145488,1.66336141 C1.96288303,2.28470982 0.615990003,2.31537392 0.603293367,2.31537392 C0.268293277,2.32164258 -4.82823374e-16,2.59500324 0,2.93006198 L0,9.0526673 L0,9.0526673 C0,12.4293511 3.94547124,16 6.06674058,16 C8.18973665,16 12,12.4293511 12,9.0526673 L11.9972899,2.79256596 C11.9971777,2.53341677 11.7903951,2.32165324 11.531322,2.31537392 Z" id="Mask" fill="url(#linearGradient-1)"></path>
                <path d="M2.4,5.33333333 L5.6,5.33333333 C5.8209139,5.33333333 6,5.51241943 6,5.73333333 L6,6.77331439 C6,6.99422829 6.1790861,7.17331439 6.4,7.17331439 C6.52483703,7.17331439 6.64251606,7.11503101 6.71817269,7.01573168 L7.87993698,5.49091605 C7.95559361,5.39161672 8.07327264,5.33333333 8.19810967,5.33333333 L9.25259316,5.33333333 C9.47350706,5.33333333 9.65259316,5.51241943 9.65259316,5.73333333 C9.65259316,5.81230333 9.62921795,5.8895064 9.58541328,5.95521341 L6.11874661,11.1552134 C6.0445603,11.2664929 5.91966777,11.3333333 5.7859265,11.3333333 L4.4,11.3333333 C4.1790861,11.3333333 4,11.1542472 4,10.9333333 L4,7.23333333 C4,7.01241943 3.8209139,6.83333333 3.6,6.83333333 L2.4,6.83333333 C2.1790861,6.83333333 2,6.65424723 2,6.43333333 L2,5.73333333 C2,5.51241943 2.1790861,5.33333333 2.4,5.33333333 Z" id="Combined-Shape" fill="#FFFFFF"></path>
            </g>
        </g>
    </g>
</svg>