<?xml version="1.0" encoding="UTF-8"?>
<svg width="16px" height="16px" viewBox="0 0 16 16" version="1.1" xmlns="http://www.w3.org/2000/svg" xmlns:xlink="http://www.w3.org/1999/xlink">
    <title>编组 2</title>
    <g id="库存管理" stroke="none" stroke-width="1" fill="none" fill-rule="evenodd">
        <g id="4.数据统计/库存统计备份-3" transform="translate(-320.000000, -157.000000)">
            <g id="编组-19" transform="translate(320.000000, 157.000000)">
                <rect id="矩形" transform="translate(8.000000, 8.000000) scale(-1, 1) translate(-8.000000, -8.000000) " x="0" y="4.54747351e-13" width="16" height="16"></rect>
                <path d="M14.9578351,5.68546682 C14.953634,5.65162656 14.9508333,5.6191963 14.9438314,5.581126 C14.9130232,5.39641455 14.7715856,4.93816095 14.5503268,4.49964749 C14.1582226,3.72273139 12.9132917,1.8403666 12.8670795,1.77127607 C12.8194668,1.69372546 12.3755488,1.00846008 11.6753627,1.00846008 C11.447102,1.00987009 11.074603,1.00987009 10.6166813,1.00987009 C8.50211933,1.00987009 4.56147196,1.00564005 4.55867121,1 L4.52786303,1 C4.34161353,1 3.38936043,1.04935038 2.86842197,2.02366805 C2.75779256,2.23093968 2.57154306,2.54819217 2.35448538,2.91761507 C1.95958043,3.58878034 1.51286169,4.35018632 1.27199767,4.86766039 C1.1949772,5.03263169 1.08014668,5.32591399 1.02833291,5.66149663 C1.01432918,5.70379696 1.00592696,5.74891731 1.00592696,5.79262766 L1.00592696,5.90965857 C1.00452658,5.93503877 1.00312621,5.96041897 1.00312621,5.98579918 C1.00312621,5.99707927 1.00592696,6.00835935 1.00592696,6.01822943 L1.00312621,12.6481015 C1.00312621,12.8821634 1.22298465,13.189824 1.45544643,13.189824 C1.6879082,13.189824 1.84895101,12.8821634 1.84895102,12.6481015 L1.84895102,6.41021251 L4.28139752,6.41021251 C6.2111104,6.41021251 8.77799265,6.4088025 10.8617465,6.40457247 C11.9050238,6.40175245 12.8264687,6.39893242 13.4874443,6.39470239 C13.7115039,6.39329237 13.9341631,6.39047235 14.1582226,6.38906235 L14.1582226,13.3023467 C14.1582226,13.7704703 13.7717199,14.1511733 13.2983941,14.1511733 L2.73678699,14.1511733 C2.26206082,14.1511733 1.87695847,13.7704703 1.87695845,13.3023467 L1.84895102,12.3458268 C1.84895102,12.1117649 1.6879082,12.2236882 1.45544643,12.2236882 C1.22298465,12.2236882 1.00312621,11.6549035 1.00312621,11.8889654 C0.998957931,12.2038289 0.998957931,12.4568743 1.00312621,12.6481015 C1.0058042,12.770959 1.01607359,12.9890408 1.0339344,13.3023467 C1.0339344,14.238594 1.79853762,15 2.73678699,15 L13.2969937,15 C14.2366435,15 14.9999276,14.238594 14.9999276,13.3023467 L14.9999276,5.87017826 C15.0012467,5.80531776 14.9844422,5.74327726 14.9578351,5.68546682 Z M3.07987817,3.35048847 C3.30113697,2.97401551 3.49298797,2.64830295 3.61061923,2.42693122 C3.90889852,1.86856683 4.45924478,1.84882667 4.53906601,1.84882667 L4.54046638,1.84882667 C4.54046638,1.84882667 10.3870203,1.8643368 11.6795638,1.85728673 C11.8602118,1.85728673 12.0800703,2.1082687 12.1584911,2.23093968 C12.1710945,2.25067984 13.4286287,4.15137477 13.798327,4.88458053 C13.9005541,5.08762212 13.978975,5.28925371 14.0335895,5.44717495 L1.94277596,5.46268507 C1.97498452,5.36821433 2.00999382,5.28643368 2.03660088,5.22721321 C2.25785968,4.74639944 2.71298065,3.97230336 3.07987817,3.35048847 L3.07987817,3.35048847 Z" id="形状" fill="#4A4A5A" fill-rule="nonzero"></path>
                <path d="M6,8.94806728 C6,9.0570677 6.0359955,9.16061809 6.09898763,9.23828087 C6.16197975,9.31458115 6.24859393,9.35818132 6.33858268,9.35818132 L8.76040495,9.35818132 L7.91563554,10.2860473 C7.81214848,10.4004977 7.77727784,10.5789859 7.82789652,10.7370365 C7.87851519,10.8950871 8.00337459,11 8.14285714,11 C8.22384701,11 8.30483689,10.9645749 8.37007874,10.8937246 L9.87064117,9.24645591 C9.87401575,9.24236839 9.87739032,9.23964339 9.8807649,9.23555587 L9.88863892,9.22738083 C9.95950505,9.14971804 10,9.03799262 10,8.92081718 C10,8.80500425 9.9583802,8.69327883 9.88638919,8.61697853 L8.47806524,7.10323535 C8.33858268,6.95335979 8.12485939,6.96834733 8,7.13729797 C7.87626548,7.3062486 7.88863892,7.56512458 8.02812149,7.71636265 L8.79302587,8.53795323 L6.33858268,8.53795323 C6.15185602,8.53931574 6,8.72189143 6,8.94806728 Z" id="路径" fill="#4A4A5A" fill-rule="nonzero" transform="translate(8.000000, 9.000000) scale(-1, -1) rotate(-90.000000) translate(-8.000000, -9.000000) "></path>
                <rect id="矩形" fill="#4A4A5A" x="5" y="12" width="6" height="1" rx="0.5"></rect>
            </g>
        </g>
    </g>
</svg>