<?xml version="1.0" encoding="UTF-8"?>
<svg width="14px" height="14px" viewBox="0 0 14 14" version="1.1" xmlns="http://www.w3.org/2000/svg" xmlns:xlink="http://www.w3.org/1999/xlink">
    <title>编组 20备份</title>
    <g id="库存管理" stroke="none" stroke-width="1" fill="none" fill-rule="evenodd">
        <g id="4.数据统计/库存统计备份-3" transform="translate(-910.000000, -158.000000)">
            <g id="编组-2备份-3" transform="translate(846.000000, 129.000000)">
                <g id="编组-20备份" transform="translate(64.000000, 29.000000)">
                    <rect id="矩形" x="0" y="0" width="14" height="14"></rect>
                    <path d="M2,13 L2,1.80357143 C2,1.35977118 2.31979661,1 2.71428571,1 L11.2857143,1 C11.6802034,1 12,1.35977118 12,1.80357143 L12,13" id="路径" stroke="#4A4A5A"></path>
                    <rect id="矩形" fill="#4A4A5A" x="0" y="13" width="14" height="1" rx="0.5"></rect>
                    <polygon id="矩形备份-8" fill="#4A4A5A" transform="translate(8.500000, 7.500000) rotate(-270.000000) translate(-8.500000, -7.500000) " points="5 7 12 7 12 8 5 8"></polygon>
                    <rect id="矩形备份-5" fill="#4A4A5A" x="5" y="5" width="1" height="1"></rect>
                    <rect id="矩形备份-6" fill="#4A4A5A" x="5" y="7" width="1" height="1"></rect>
                    <rect id="矩形备份-7" fill="#4A4A5A" x="5" y="9" width="1" height="1"></rect>
                </g>
            </g>
        </g>
    </g>
</svg>