<?xml version="1.0" encoding="UTF-8"?>
<svg width="16px" height="13px" viewBox="0 0 16 13" version="1.1" xmlns="http://www.w3.org/2000/svg" xmlns:xlink="http://www.w3.org/1999/xlink">
    <title>4.数据统计/库存统计备份 3</title>
    <g id="库存管理" stroke="none" stroke-width="1" fill="none" fill-rule="evenodd">
        <g id="4.数据统计/库存统计备份-3" transform="translate(-615.000000, -159.000000)" fill="#4A4A5A" fill-rule="nonzero">
            <g id="过磅" transform="translate(615.000000, 159.000000)">
                <path d="M15.8974359,5.64049587 L13.4871795,2.09504132 C13.3846154,1.98760331 13.2820513,1.88016529 13.1282051,1.88016529 L11.3333333,1.88016529 L11.3333333,0.429752066 C11.3333333,0.161157025 11.1282051,0 10.9230769,0 L0.461538462,0 C0.205128205,0 0.0512820513,0.214876033 0.0512820513,0.429752066 L0.0512820513,9.29338843 C0.0512820513,9.56198347 0.256410256,9.7231405 0.461538462,9.7231405 L2.71794872,9.7231405 C2.66666667,9.88429752 2.66666667,10.0454545 2.66666667,10.2066116 C2.66666667,11.3884298 3.58974359,12.3553719 4.71794872,12.3553719 C5.84615385,12.3553719 6.76923077,11.3884298 6.76923077,10.2066116 C6.76923077,10.0454545 6.76923077,9.88429752 6.71794872,9.7231405 L11.0769231,9.7231405 C11.025641,9.88429752 11.025641,10.0454545 11.025641,10.2066116 C11.025641,11.3884298 11.9487179,12.3553719 13.0769231,12.3553719 C14.2051282,12.3553719 15.1282051,11.3884298 15.1282051,10.2066116 C15.1282051,10.0454545 15.1282051,9.88429752 15.0769231,9.7231405 L15.5897436,9.7231405 C15.8461538,9.7231405 16,9.50826446 16,9.29338843 L16,5.90909091 C15.9487179,5.80165289 15.9487179,5.69421488 15.8974359,5.64049587 Z M4.66666667,11.4421488 C4,11.4421488 3.48717949,10.9049587 3.48717949,10.2066116 C3.48717949,9.50826446 4,8.97107438 4.66666667,8.97107438 C5.33333333,8.97107438 5.84615385,9.50826446 5.84615385,10.2066116 C5.84615385,10.9049587 5.28205128,11.4421488 4.66666667,11.4421488 Z M4.66666667,8.11157025 C4.05128205,8.11157025 3.53846154,8.38016529 3.12820513,8.86363636 L0.871794872,8.86363636 L0.871794872,0.91322314 L10.4615385,0.91322314 L10.4615385,8.86363636 L6.20512821,8.86363636 C5.79487179,8.38016529 5.23076923,8.11157025 4.66666667,8.11157025 Z M13.025641,11.4421488 C12.3589744,11.4421488 11.8461538,10.9049587 11.8461538,10.2066116 C11.8461538,9.50826446 12.3589744,8.97107438 13.025641,8.97107438 C13.6923077,8.97107438 14.2051282,9.50826446 14.2051282,10.2066116 C14.2051282,10.9049587 13.6923077,11.4421488 13.025641,11.4421488 Z M15.1282051,8.86363636 L14.6153846,8.86363636 C14.2564103,8.4338843 13.6923077,8.11157025 13.0769231,8.11157025 C12.4615385,8.11157025 11.9487179,8.38016529 11.5384615,8.86363636 L11.3333333,8.86363636 L11.3333333,2.79338843 L12.9230769,2.79338843 L15.1282051,6.01652893 L15.1282051,8.86363636 L15.1282051,8.86363636 Z M0,12.3553719 L15.9487179,12.3553719 L15.9487179,13 L0,13 L0,12.3553719 Z" id="形状"></path>
            </g>
        </g>
    </g>
</svg>